<svg xmlns="http://www.w3.org/2000/svg" xmlns:xlink="http://www.w3.org/1999/xlink" width="813" height="888" viewBox="0 0 813 888"><defs><clipPath id="a"><rect width="813" height="888" transform="translate(467)" fill="#fff"/></clipPath><linearGradient id="b" x1="0.522" y1="0.014" x2="0.457" y2="0.994" gradientUnits="objectBoundingBox"><stop offset="0" stop-color="#2f2e41"/><stop offset="1" stop-color="#ff8181"/></linearGradient><linearGradient id="c" x1="0.5" y1="1" x2="0.5" gradientUnits="objectBoundingBox"><stop offset="0" stop-color="gray" stop-opacity="0.251"/><stop offset="0.54" stop-color="gray" stop-opacity="0.122"/><stop offset="1" stop-color="gray" stop-opacity="0.102"/></linearGradient></defs><g transform="translate(-467)" clip-path="url(#a)"><g transform="translate(-156 91)"><path d="M395.5,0h0A395.5,395.5,0,0,1,791,395.5V1244a0,0,0,0,1,0,0H0a0,0,0,0,1,0,0V395.5A395.5,395.5,0,0,1,395.5,0Z" transform="matrix(-0.788, -0.616, 0.616, -0.788, 1081.461, 954.787)" fill="#ff8181" opacity="0.05"/><path d="M350,0C543.3,0,700,156.7,700,350v650H0V350C0,156.7,156.7,0,350,0Z" transform="matrix(-0.788, -0.616, 0.616, -0.788, 1072.973, 889.487)" fill="url(#b)"/><g transform="translate(796 146.011)"><path d="M553.517,179.655a143.721,143.721,0,0,0-19.278-35.928l-267.456-3.08,220.207-36.18A109.4,109.4,0,0,0,442.3,94.1C399.046,53.655,338.209,51.246,292.712,88.18A110.312,110.312,0,0,0,235.47,72.05c-59.424,0-108.943,48.139-120.05,111.974Z" transform="translate(-76.92 -62.05)" fill="#ff8181" opacity="0.1"/><path d="M510.19,356.958a155.434,155.434,0,0,0-8.335-50.528L38.319,363.335a150.334,150.334,0,0,0-10.854,32.083L171,420.442,24.19,438.7C28.6,510.97,81.584,568.023,146.279,568.023c32.575,0,62.171-14.467,84.1-38.045,22,24.018,51.878,38.825,84.8,38.825,48.848,0,91.012-32.532,110.644-79.565,39.387-14.62,69.987-51.333,80.457-97.236L324.753,359.031h185.42C510.181,358.335,510.19,357.649,510.19,356.958Z" transform="translate(-24.19 -185.814)" fill="#ff8181" opacity="0.1"/><ellipse cx="14.078" cy="5.706" rx="14.078" ry="5.706" transform="translate(249.558 321.173)" fill="#ff8181" opacity="0.1"/><ellipse cx="14.078" cy="5.706" rx="14.078" ry="5.706" transform="translate(426.433 321.173)" fill="#ff8181" opacity="0.1"/><ellipse cx="14.078" cy="5.706" rx="14.078" ry="5.706" transform="translate(234.201 349.761)" fill="#ff8181" opacity="0.1"/><ellipse cx="14.078" cy="5.706" rx="14.078" ry="5.706" transform="translate(441.701 350.314)" fill="#ff8181" opacity="0.1"/><path d="M1068.78,659.623l3.076,7.68V610.26h-3.076Z" transform="translate(-617.74 -309.052)" fill="#b77b7f"/><path d="M593.677,659.623,590.6,667.3V610.26h3.077Z" transform="translate(-341.358 -309.052)" fill="#b77b7f"/><path d="M1068.78,659.623l3.076,7.68V610.26h-3.076Z" transform="translate(-617.74 -309.052)" opacity="0.1"/><path d="M593.677,659.623,590.6,667.3V610.26h3.077Z" transform="translate(-341.358 -309.052)" opacity="0.1"/><rect width="8.525" height="70.118" transform="translate(264.755 196.435)" fill="#b77b7f"/><rect width="8.525" height="70.118" transform="translate(436.249 196.435)" fill="#b77b7f"/><rect width="8.525" height="8.174" transform="translate(264.755 196.435)" opacity="0.1"/><rect width="8.525" height="8.174" transform="translate(436.249 196.435)" opacity="0.1"/><rect width="205.293" height="10.459" transform="translate(251.617 193.493)" fill="#dda2a6"/><rect width="8.525" height="10.459" transform="translate(264.755 208.365)" opacity="0.1"/><rect width="8.525" height="10.459" transform="translate(436.249 208.365)" opacity="0.1"/><rect width="205.293" height="10.459" transform="translate(251.617 207.714)" fill="#dda2a6"/><rect width="8.525" height="10.459" transform="translate(264.755 222.585)" opacity="0.1"/><rect width="8.525" height="10.459" transform="translate(436.249 222.585)" opacity="0.1"/><rect width="205.293" height="10.459" transform="translate(251.617 221.934)" fill="#dda2a6"/><rect width="8.525" height="10.459" transform="translate(264.755 236.805)" opacity="0.1"/><rect width="8.525" height="10.459" transform="translate(436.249 236.805)" opacity="0.1"/><rect width="205.293" height="10.459" transform="translate(251.617 236.154)" fill="#dda2a6"/><rect width="8.525" height="10.459" transform="translate(264.755 251.025)" opacity="0.1"/><rect width="8.525" height="10.459" transform="translate(436.249 251.025)" opacity="0.1"/><rect width="205.293" height="10.459" transform="translate(251.617 250.374)" fill="#dda2a6"/><g transform="translate(267.781 197.931)" opacity="0.1"><ellipse cx="1.237" cy="1.446" rx="1.237" ry="1.446"/><ellipse cx="1.237" cy="1.446" rx="1.237" ry="1.446" transform="translate(0 14.22)"/><ellipse cx="1.237" cy="1.446" rx="1.237" ry="1.446" transform="translate(0 28.44)"/><ellipse cx="1.237" cy="1.446" rx="1.237" ry="1.446" transform="translate(0 42.66)"/><ellipse cx="1.237" cy="1.446" rx="1.237" ry="1.446" transform="translate(0 56.88)"/><ellipse cx="1.237" cy="1.446" rx="1.237" ry="1.446" transform="translate(171.498)"/><ellipse cx="1.237" cy="1.446" rx="1.237" ry="1.446" transform="translate(171.498 14.22)"/><ellipse cx="1.237" cy="1.446" rx="1.237" ry="1.446" transform="translate(171.498 28.44)"/><ellipse cx="1.237" cy="1.446" rx="1.237" ry="1.446" transform="translate(171.498 42.66)"/><ellipse cx="1.237" cy="1.446" rx="1.237" ry="1.446" transform="translate(171.498 56.88)"/></g><ellipse cx="1.237" cy="1.446" rx="1.237" ry="1.446" transform="translate(267.781 197.279)" fill="#918c9e"/><ellipse cx="1.237" cy="1.446" rx="1.237" ry="1.446" transform="translate(267.781 211.499)" fill="#918c9e"/><ellipse cx="1.237" cy="1.446" rx="1.237" ry="1.446" transform="translate(267.781 225.719)" fill="#918c9e"/><ellipse cx="1.237" cy="1.446" rx="1.237" ry="1.446" transform="translate(267.781 239.94)" fill="#918c9e"/><ellipse cx="1.237" cy="1.446" rx="1.237" ry="1.446" transform="translate(267.781 254.16)" fill="#918c9e"/><ellipse cx="1.237" cy="1.446" rx="1.237" ry="1.446" transform="translate(439.279 197.279)" fill="#918c9e"/><ellipse cx="1.237" cy="1.446" rx="1.237" ry="1.446" transform="translate(439.279 211.499)" fill="#918c9e"/><ellipse cx="1.237" cy="1.446" rx="1.237" ry="1.446" transform="translate(439.279 225.719)" fill="#918c9e"/><ellipse cx="1.237" cy="1.446" rx="1.237" ry="1.446" transform="translate(439.279 239.94)" fill="#918c9e"/><ellipse cx="1.237" cy="1.446" rx="1.237" ry="1.446" transform="translate(439.279 254.16)" fill="#918c9e"/><path d="M799.576,541.784H584.64l4.891-7.034H794.824Z" transform="translate(-337.914 -270.813)" fill="#dda2a6"/><path d="M799.576,541.784H584.64l4.891-7.034H794.824Z" transform="translate(-337.914 -270.813)" opacity="0.1"/><path d="M799.576,541.119H584.64l4.891-7.029H794.824Z" transform="translate(-337.914 -270.478)" fill="#dda2a6"/><path d="M796.018,560.616l-230.589-.651,7.828-9.645H789.313Z" transform="translate(-326.811 -278.697)" fill="#dda2a6"/><path d="M796.018,560.616l-230.589-.651,7.828-9.645H789.313Z" transform="translate(-326.811 -278.697)" opacity="0.1"/><path d="M796.018,559.956,565.43,559.3l7.828-9.645H789.313Z" transform="translate(-326.811 -278.363)" fill="#dda2a6"/><path d="M791.992,581.15H545.89l7.55-9.97,231.846.326Z" transform="translate(-315.517 -289.261)" fill="#dda2a6"/><path d="M628.854,610.26v20.592l-3.026,6.866-1-24.516-.118-2.942Z" transform="translate(-361.074 -309.052)" fill="#b77b7f"/><path d="M1037.938,610.26l-.122,2.942-1,24.516-3.03-6.866V610.26Z" transform="translate(-597.516 -309.052)" fill="#b77b7f"/><path d="M628.854,610.26v20.592l-3.026,6.866-1-24.516-.118-2.942Z" transform="translate(-361.074 -309.052)" opacity="0.1"/><path d="M1037.938,610.26l-.122,2.942-1,24.516-3.03-6.866V610.26Z" transform="translate(-597.516 -309.052)" opacity="0.1"/><rect width="7.824" height="29.097" transform="translate(256.926 299.574)" fill="#b77b7f"/><rect width="7.824" height="29.097" transform="translate(439.304 299.574)" fill="#b77b7f"/><path d="M616.638,608.584h3.026v2.942H608.81V606.95h7.828Z" transform="translate(-351.884 -307.376)" opacity="0.1"/><path d="M1044.644,606.95v4.576H1033.79v-2.942h3.03V606.95Z" transform="translate(-597.516 -307.376)" opacity="0.1"/><rect width="210.184" height="7.191" transform="translate(246.726 296.302)" fill="#b77b7f"/><rect width="8.942" height="63.257" transform="translate(240.299 294.994)" fill="#b77b7f"/><rect width="8.942" height="63.257" transform="translate(463.063 358.251) rotate(180)" fill="#b77b7f"/><rect width="210.184" height="0.652" transform="translate(246.726 296.302)" opacity="0.1"/><rect width="246.102" height="4.413" transform="translate(230.373 291.889)" fill="#dda2a6"/><rect width="246.102" height="4.413" transform="translate(230.373 291.889)" fill="#fff" opacity="0.1"/><ellipse cx="1.237" cy="1.446" rx="1.237" ry="1.446" transform="translate(243 298.779)" opacity="0.1"/><ellipse cx="1.237" cy="1.446" rx="1.237" ry="1.446" transform="translate(243 298.128)" fill="#918c9e"/><ellipse cx="1.237" cy="1.446" rx="1.237" ry="1.446" transform="translate(458.084 298.582)" opacity="0.1"/><ellipse cx="1.237" cy="1.446" rx="1.237" ry="1.446" transform="translate(458.084 297.93)" fill="#918c9e"/><ellipse cx="19.801" cy="3.179" rx="19.801" ry="3.179" transform="translate(16.104 316.336)" fill="#ff8181" opacity="0.1"/><ellipse cx="19.801" cy="3.179" rx="19.801" ry="3.179" transform="translate(91.957 325.329)" fill="#ff8181" opacity="0.1"/><ellipse cx="19.801" cy="3.179" rx="19.801" ry="3.179" transform="translate(181.301 313.157)" fill="#ff8181" opacity="0.1"/><ellipse cx="14.078" cy="2.261" rx="14.078" ry="2.261" transform="translate(67.32 351.859)" fill="#ff8181" opacity="0.1"/><ellipse cx="14.078" cy="2.261" rx="14.078" ry="2.261" transform="translate(146.046 349.599)" fill="#ff8181" opacity="0.1"/><path d="M274.736,545.728s-27.764-106.48,4.351-149.151c24.029-31.905,51.3-28.09,63.517-24.141,6.4,1.994,11.722,7.171,14.568,14.161,4.267,10.775,3.5,28.263-26.646,48.677-50.473,34.176-53.6,81.061-53.6,81.061Z" transform="translate(-162.56 -217.931)" fill="#ff8181"/><path d="M349.849,405.73S267.978,435.671,286.336,563.9" transform="translate(-174.156 -236.101)" fill="none" stroke="#565987" stroke-miterlimit="10" stroke-width="1"/><path d="M327.21,427.47s11.272,8.884,7.689,22.241" transform="translate(-199.331 -247.111)" fill="none" stroke="#565987" stroke-miterlimit="10" stroke-width="1"/><path d="M400.131,438.33s-6.892-8.2-15.281-3.677" transform="translate(-232.646 -250.058)" fill="none" stroke="#565987" stroke-miterlimit="10" stroke-width="1"/><path d="M323.521,524.215s-12.1-7.182-15.23,1.816" transform="translate(-188.396 -294.729)" fill="none" stroke="#565987" stroke-miterlimit="10" stroke-width="1"/><path d="M273.42,557.316s9.107-.849,9.251,4.26" transform="translate(-168.241 -312.84)" fill="none" stroke="#565987" stroke-miterlimit="10" stroke-width="1"/><path d="M287.35,650.208s32.529-77.389,41.463-75.7c4.245.8,6.2,5.686,7.081,10.592a36.012,36.012,0,0,1-1.768,18.84C329.509,616.328,317.115,639.842,287.35,650.208Z" transform="translate(-176.293 -321.562)" fill="#ff8181"/><path d="M329.207,604.3s-34.141,57.9-40.737,60.439" transform="translate(-176.94 -336.661)" fill="none" stroke="#565987" stroke-miterlimit="10" stroke-width="1"/><line x1="7.968" transform="translate(147.452 276.672)" fill="none" stroke="#565987" stroke-miterlimit="10" stroke-width="1"/><line x1="12.492" y2="0.627" transform="translate(133.382 297.856)" fill="none" stroke="#565987" stroke-miterlimit="10" stroke-width="1"/><line x2="1.355" y2="7.606" transform="translate(138.273 280.912)" fill="none" stroke="#565987" stroke-miterlimit="10" stroke-width="1"/><line x2="0.241" y2="6.915" transform="translate(124.992 304.071)" fill="none" stroke="#565987" stroke-miterlimit="10" stroke-width="1"/><path d="M222.43,650.208s-32.525-77.389-41.459-75.7c-4.245.8-6.2,5.686-7.086,10.592a36.012,36.012,0,0,0,1.772,18.84C180.271,616.328,192.669,639.842,222.43,650.208Z" transform="translate(-110.406 -321.562)" fill="#ff8181"/><path d="M192,604.3s34.141,57.9,40.737,60.439" transform="translate(-121.182 -336.661)" fill="none" stroke="#565987" stroke-miterlimit="10" stroke-width="1"/><line x2="7.972" transform="translate(67.666 276.672)" fill="none" stroke="#565987" stroke-miterlimit="10" stroke-width="1"/><line x2="12.492" y2="0.627" transform="translate(77.212 297.856)" fill="none" stroke="#565987" stroke-miterlimit="10" stroke-width="1"/><line x1="1.355" y2="7.606" transform="translate(83.458 280.912)" fill="none" stroke="#565987" stroke-miterlimit="10" stroke-width="1"/><line x1="0.245" y2="6.915" transform="translate(97.852 304.071)" fill="none" stroke="#565987" stroke-miterlimit="10" stroke-width="1"/><path d="M397.388,753.782a6.713,6.713,0,0,0,1.853-3.268c.241-1.293-.236-2.858-1.3-3.332-1.186-.528-2.456.434-3.418,1.407s-2.068,2.083-3.326,1.876a6.559,6.559,0,0,0,1.545-5.543,2.583,2.583,0,0,0-.422-1.125c-.663-.824-1.857-.469-2.646.178-2.532,2.068-3.212,6.056-3.228,9.649a21.513,21.513,0,0,1-.046-3.973,4.444,4.444,0,0,0-1.266-3.514,3.4,3.4,0,0,0-1.945-.538,3.621,3.621,0,0,0-3.157,1.051c-.958,1.2-.709,3.213.122,4.536a12.91,12.91,0,0,0,3.266,3.06,7.885,7.885,0,0,1,2.338,2.606,3.125,3.125,0,0,1,.173.464h7.077a20.075,20.075,0,0,0,4.376-3.534Z" transform="translate(-229.507 -407.061)" fill="#ff8181"/><path d="M103.713,690.633a6.691,6.691,0,0,0,1.853-3.268c.241-1.293-.232-2.853-1.3-3.332-1.186-.528-2.456.434-3.418,1.407s-2.068,2.083-3.325,1.876a6.553,6.553,0,0,0,1.566-5.543,2.61,2.61,0,0,0-.422-1.125c-.663-.824-1.857-.469-2.646.183-2.532,2.063-3.212,6.056-3.224,9.645a20.915,20.915,0,0,1-.046-3.949,4.477,4.477,0,0,0-1.266-3.514,3.4,3.4,0,0,0-1.945-.538,3.643,3.643,0,0,0-3.157,1.051c-.958,1.2-.709,3.213.122,4.536a12.858,12.858,0,0,0,3.271,3.06,7.919,7.919,0,0,1,2.334,2.606,3.127,3.127,0,0,1,.173.464h7.077A20.127,20.127,0,0,0,103.713,690.633Z" transform="translate(-59.781 -375.081)" fill="#ff8181"/><path d="M201.593,753.782a6.713,6.713,0,0,0,1.853-3.268c.241-1.293-.232-2.858-1.3-3.332-1.186-.528-2.456.434-3.418,1.407s-2.068,2.083-3.325,1.876a6.553,6.553,0,0,0,1.566-5.543,2.584,2.584,0,0,0-.422-1.125c-.663-.824-1.857-.469-2.646.178-2.511,2.068-3.212,6.056-3.224,9.649a21.152,21.152,0,0,1-.046-3.973,4.444,4.444,0,0,0-1.266-3.514,3.4,3.4,0,0,0-1.945-.538,3.629,3.629,0,0,0-3.157,1.051c-.958,1.2-.709,3.213.122,4.536a12.857,12.857,0,0,0,3.271,3.06,7.869,7.869,0,0,1,2.334,2.606,2.7,2.7,0,0,1,.173.464h7.052a20.076,20.076,0,0,0,4.376-3.534Z" transform="translate(-116.355 -407.061)" fill="#ff8181"/><path d="M493.766,636.87s2.654,4.057-1.224,10.183-7.073,11.3-5.782,15.118c0,0,5.849-11.352,10.614-11.535S499.008,643.711,493.766,636.87Z" transform="translate(-291.381 -353.155)" fill="#ff8181"/><path d="M493.969,636.87a5.349,5.349,0,0,1,.544,1.273c4.642,6.382,7.119,12.34,2.654,12.493-4.161.138-9.149,8.84-10.348,11.036.042.168.089.336.143.494,0,0,5.849-11.352,10.614-11.535S499.21,643.711,493.969,636.87Z" transform="translate(-291.584 -353.155)" opacity="0.1"/><path d="M514.612,646.409a5.757,5.757,0,0,1-.3,2.586,5.724,5.724,0,0,1-.308-2.586c0-1.427.173-.76.342-.76S514.612,644.977,514.612,646.409Z" transform="translate(-307.293 -357.521)" fill="#ffd037"/><path d="M516.558,649.8c-1.072.686-2,1.1-2.11.923s.726-.869,1.8-1.55.65-.187.73,0S517.63,649.118,516.558,649.8Z" transform="translate(-307.547 -359.208)" fill="#ffd037"/><path d="M462.4,636.87s-2.65,4.057,1.228,10.183,7.073,11.3,5.782,15.118c0,0-5.853-11.352-10.614-11.535S457.161,643.711,462.4,636.87Z" transform="translate(-274.028 -353.155)" fill="#ff8181"/><path d="M462.4,636.87a5.467,5.467,0,0,0-.54,1.273c-4.642,6.382-7.124,12.34-2.654,12.493,4.161.138,9.149,8.84,10.344,11.036a5.084,5.084,0,0,1-.139.494s-5.853-11.352-10.614-11.535S457.161,643.711,462.4,636.87Z" transform="translate(-274.028 -353.155)" opacity="0.1"/><path d="M458.87,646.409a5.758,5.758,0,0,0,.3,2.586,5.723,5.723,0,0,0,.308-2.586c0-1.427-.173-.76-.342-.76S458.87,644.977,458.87,646.409Z" transform="translate(-275.429 -357.521)" fill="#ffd037"/><path d="M453.966,649.8c1.072.686,2,1.1,2.085.923s-.722-.869-1.794-1.55-.65-.187-.73,0S452.894,649.118,453.966,649.8Z" transform="translate(-272.217 -359.208)" fill="#ffd037"/><path d="M460.87,682.248s7.419-.266,9.651-2.132,11.394-4.082,11.968-1.1,11.15,14.852,2.773,14.931-19.459-1.525-21.692-3.119S460.87,682.248,460.87,682.248Z" transform="translate(-276.585 -373.76)" fill="#a8a8a8"/><path d="M485.39,697.706c-8.373.079-19.459-1.525-21.692-3.115-1.688-1.209-2.376-5.558-2.6-7.562h-.249s.468,6.994,2.7,8.583,13.315,3.2,21.692,3.119c2.418,0,3.254-1.032,3.207-2.522C488.121,697.129,487.2,697.691,485.39,697.706Z" transform="translate(-276.573 -378.557)" opacity="0.2"/><path d="M797.471,485.955l.249-.1s-.118-6.313-3.043-9.679-1.093-13.909-1.093-13.909.245-11.086-1.1-13.751,0-12.631,0-12.631V420.743s-1.093-3.949-1.338-14.733-1.215-9.378-3.043-12.488c-.945-1.6-4.971-3.277-8.677-4.482a74.559,74.559,0,0,0-7.976-8.218,10.979,10.979,0,0,1,3.874-3.292c1.313-.726,2.819-1.481,3.355-3.031a6.966,6.966,0,0,0,.144-2.794,19.246,19.246,0,0,0-.722-4.358,5.518,5.518,0,0,0-2.469-3.272c-.637-.326-1.464-.553-1.65-1.328a2.177,2.177,0,0,1,.034-.933,22.514,22.514,0,0,0,.73-4.571,12.612,12.612,0,0,0-1.363-4.882c-1.734-3.865-3.942-7.675-7.246-9.783-4.148-2.646-9.284-2.127-13.867-.795a15.888,15.888,0,0,1-3.8.824,14.115,14.115,0,0,0-2.33.064,3.987,3.987,0,0,0-1.266.494c.084-.1.169-.207.262-.3a6.415,6.415,0,0,0-2.017,1.757,6.1,6.1,0,0,0-1.266,2.606,4.134,4.134,0,0,0-.1.987,5.411,5.411,0,0,0,.844,2.586,19.076,19.076,0,0,0-1.785,1.175,2.374,2.374,0,0,0-.739.755,1.683,1.683,0,0,0-.139.37,4.5,4.5,0,0,0-.283,1.713.542.542,0,0,1-.03.217c.051-.109.093-.217.135-.331-.481,3.455-4.127,5.622-5.153,8.761a5.287,5.287,0,0,0-.422,2.093c.046,2.527,1.958,4.4,3,6.624,1.734,3.717.958,8.233.469,12.414-.068.592-.122,1.2-.156,1.821-2.57.494-5.364,1.54-7.073,3.633-3.832,4.7-2.11.7-4.866,11.086L722.817,411.5l-.367,7.507s-2.11,2.468-1.945,5.123a5.836,5.836,0,0,1-.911,3.949,63.055,63.055,0,0,0,0,6.876c.245,1.333-1.827,2.665-1.688,3.86q.1,1.973,0,3.949c0,.212-1.827.563-1.642,3.016q.164,2.171.118,4.353s-3.039,3.717-2.431,5.75-.549,5.474-.549,5.474-.671,4.492-2.313,5.686c-1.338.987-2.393,4.635-2.739,5.967-1.224.049-18.894.844-18.307,3.6.608,2.853,17.281,3.741,19.227,3.741a1.477,1.477,0,0,0,.253-.03c-.456,3.455-1.629,10.252-3.849,11.352-2.984,1.481-8.4,7.858-8.153,10.666s-.975,19.788-1.768,22.172a18.657,18.657,0,0,0-.253,4.008c-3.849,7.8-6.689,14.141-7.44,15.829l-.194.439-.228.7h0c-.519-.42-4.292,5.2-4.292,5.2s-3.1,6.175-3.224,7.014-2.5,1.4-2.617,2.034a43.64,43.64,0,0,1-2.92,4.7S673,569.2,670.2,570.466s-5.777,4.353-1.945,7.863,11.5,5.469,11.5,5.469,4.87-5.824,5.841-8.559a53.223,53.223,0,0,1,3.773-7.3,42.084,42.084,0,0,0,1.95-5.429c.262-1.481,5.879-11.407,5.879-11.407l-.608-.276c.232-.3.5-.622.793-.987.207-.252.422-.523.663-.795.65,1.866,1.435,3.134,2.376,3.386,4.5,1.194,7.727-5.193,9.8-5.824s4.317-8.83,4.317-8.83,6.149-6.036,6.208-10.859c0-1.061.034-2.192.055-3.307a59.87,59.87,0,0,1,3.536-6.959c2.275-3.554,4.056-7.019,5.2-7.764.844-.543,6.085-6.644,8.862-9.916l.287-.341c.844,2.152,1.815,3.672,2.92,3.707.844.03,1.528-1.407,2.068-3.455q.08.2.177.4a23.693,23.693,0,0,0,4.326,5.923s7.79,12.769,7.119,14.807,5.659,10.592,9.284,13.119c2.92,2.024,10.55,12.167,13.466,16.111l.422.582a2.4,2.4,0,0,1-.654.193c-1.013.044,1.422,3.179,1.422,3.179s1.9,3.04,1.823,4.541,2.393,5.1,2.393,5.1,4.22,8.391,3.937,11.273-2.718,10.523,3.043,9.028,11.926-2.246,11.816-5.661-2.6-9.378-2.6-9.378l-2.557-5.992a54.481,54.481,0,0,1-3.693-6.545c-1.139-2.665-4.663-11.229-4.663-11.229l-1.266.627-.27-.671c-1.308-3.233-4.473-11.175-8.305-21.49a90.806,90.806,0,0,0-5.064-11.5l5.064-1.249c5.832,6.367,19.535,8.322,19.535,8.322s-.844-15.854.49-20.489a4.442,4.442,0,0,0-1.574-4.936c5.486-.37,15.268-1.4,15.733-3.574S802.708,486.291,797.471,485.955Zm-15.264-3.865c-1.085-.089-1.886-.1-1.886-.1a18.6,18.6,0,0,1,1.215-4c.73-1.407-4.38-5.192-4.056-8.7s-1.663-10.8-1.663-10.8.24-7.576,0-11.086a12.255,12.255,0,0,1,1.093-6.032s2.92,9.121,1.688,10.365,0,8,0,8,2.19,8.983,3.283,12.211c.646,1.866.422,6.229.325,10.153Z" transform="translate(-395.397 -203.163)" fill="url(#c)"/><path d="M743.641,612s-18.45.735-17.86,3.549,16.8,3.687,18.687,3.687,4.608-4.052,4.608-4.052Z" transform="translate(-429.692 -340.56)" fill="#efb7b9"/><rect width="10.643" height="11.476" transform="translate(325.402 261.593)" fill="#67647e"/><rect width="10.643" height="11.476" transform="translate(325.402 261.593)" opacity="0.12"/><path d="M744.241,542.968l-9.791,23.119,12.411,4.709,10.019-10.054,4.735-10.73,9.588.913,10.234,5.958,8.272,5.908,5.005,10.948,7.174,4.743,15.382-3.84,2.245-12.236-12.551-9.832-4.549-8.055-18.442-3.139-5.339-9.309-18.45,5.207Z" transform="translate(-424.502 -269.455)" fill="#67647e"/><path d="M743.963,543.4l-9.993,25.188,12.614,2.641L756.6,561.177l4.735-10.73,9.588.908,10.234,5.962,8.272,5.9,5.005,10.953,7.174,4.738,15.382-3.84,2.245-12.236-12.551-9.827-4.549-8.06L783.7,541.814l-5.339-9.314-18.45,5.207Z" transform="translate(-424.224 -269.673)" opacity="0.12"/><path d="M834.1,368.111a2.282,2.282,0,0,0-.717.745,4.571,4.571,0,0,0-.279,1.7c-.376,4.166-5.372,6.417-5.3,10.587.042,2.468,1.9,4.334,2.912,6.525,1.688,3.662.928,8.119.456,12.241-.359,3.124-.359,6.792,1.688,8.845a33.2,33.2,0,0,1,2.7,2.231c1.561,1.905,1.22,5.03,2.249,7.4a2.168,2.168,0,0,0,.422.671,1.685,1.685,0,0,0,.6.36c1.988.765,4.258-.321,5.6-2.2a12.469,12.469,0,0,0,1.945-6.836,65.063,65.063,0,0,0-.468-7.305c-.384-4.679-.253-9.378-.578-14.077a12.978,12.978,0,0,0-.844-4.314c-.308-.7-.726-1.333-1.017-2.043a12.365,12.365,0,0,1-.684-3.09l-1.114-8.248c-.219-1.649-.422-4.605-2.038-5.242S835.418,367.134,834.1,368.111Z" transform="translate(-488.67 -215.945)" fill="#e3787d"/><path d="M834.1,368.111a2.282,2.282,0,0,0-.717.745,4.571,4.571,0,0,0-.279,1.7c-.376,4.166-5.372,6.417-5.3,10.587.042,2.468,1.9,4.334,2.912,6.525,1.688,3.662.928,8.119.456,12.241-.359,3.124-.359,6.792,1.688,8.845a33.2,33.2,0,0,1,2.7,2.231c1.561,1.905,1.22,5.03,2.249,7.4a2.168,2.168,0,0,0,.422.671,1.685,1.685,0,0,0,.6.36c1.988.765,4.258-.321,5.6-2.2a12.469,12.469,0,0,0,1.945-6.836,65.063,65.063,0,0,0-.468-7.305c-.384-4.679-.253-9.378-.578-14.077a12.978,12.978,0,0,0-.844-4.314c-.308-.7-.726-1.333-1.017-2.043a12.365,12.365,0,0,1-.684-3.09l-1.114-8.248c-.219-1.649-.422-4.605-2.038-5.242S835.418,367.134,834.1,368.111Z" transform="translate(-488.67 -215.945)" fill="#e3787d"/><g transform="translate(338.999 152.965)" opacity="0.1"><path d="M840.455,372.311a1.544,1.544,0,0,1,.025-.341,1.48,1.48,0,0,0-.219.306,4.527,4.527,0,0,0-.3,1.683.624.624,0,0,1-.025.212A5.91,5.91,0,0,0,840.455,372.311Z" transform="translate(-834.681 -371.97)"/><path d="M844.58,429.452c-1.338,1.876-3.612,2.961-5.6,2.2a1.585,1.585,0,0,1-1.021-1.032c-1.034-2.349-.692-5.469-2.254-7.379-.764-.928-1.861-1.387-2.7-2.231-2.047-2.053-2.047-5.716-1.688-8.845.473-4.121,1.232-8.578-.456-12.236-1.009-2.2-2.865-4.042-2.912-6.53a4.74,4.74,0,0,1,.038-.7,5.362,5.362,0,0,0-.511,2.354c.042,2.468,1.9,4.339,2.912,6.53,1.688,3.662.928,8.114.456,12.236-.359,3.129-.359,6.792,1.688,8.85a33.19,33.19,0,0,1,2.7,2.231c1.561,1.905,1.22,5.03,2.249,7.374a2.19,2.19,0,0,0,.422.676,1.65,1.65,0,0,0,.6.355c1.984.765,4.258-.321,5.6-2.2a10.208,10.208,0,0,0,1.591-3.83A9.022,9.022,0,0,1,844.58,429.452Z" transform="translate(-827.479 -382.468)"/></g><path d="M959.3,637.55s18.446.74,17.855,3.549-16.792,3.692-18.687,3.692-4.608-4.057-4.608-4.057Z" transform="translate(-561.526 -353.499)" fill="#efb7b9"/><path d="M785.081,438.221s-9.044-.622-12.766,4.013-2.072.691-4.731,10.928L764.921,463.4l-.354,7.4s-2.068,2.419-1.891,5.049a5.57,5.57,0,0,1-.89,3.875,63.456,63.456,0,0,0,0,6.777c.236,1.313-1.772,2.626-1.654,3.8q.092,1.936,0,3.875a2.915,2.915,0,0,0-1.6,2.961q.16,2.137.118,4.284s-2.954,3.667-2.368,5.671-.532,5.395-.532,5.395-.65,4.442-2.245,5.6-2.781,6.382-2.781,6.382,1.477,4.5,1.477,4.7-1.064,11.757-3.958,13.208-8.162,7.754-7.934,10.5-.945,19.506-1.713,21.856.118,26.352,4.494,27.527,7.516-5.118,9.529-5.735,4.195-8.717,4.195-8.717,5.976-5.948,6.035-10.716.236-10.859.236-10.859-6.98-13.82-8.4-14.872-5.381-6.91-2.308-11.964a58.65,58.65,0,0,0,5.03-11.481l3.309-3.455,2.8-12.389,5.064-19.363,4.79-19.023,4.073-19.985,10.749-8.756S790.111,439.258,785.081,438.221Z" transform="translate(-436.966 -252.541)" fill="#67647e"/><path d="M770.037,639.246s-.679.819-1.688,2.029c-2.714,3.223-7.824,9.24-8.63,9.773-1.106.74-2.836,4.151-5.064,7.655s-5.2,11.066-5.2,11.066-7.411,12.172-11.745,13.465c-2.954.874-6.963,5.39-9.242,8.213-1.093,1.343-1.789,2.3-1.789,2.3l-8.525-3.875,1.106-3.411.19-.439c.819-1.866,4.191-9.506,8.639-18.47a120.817,120.817,0,0,1,12.935-19.822s6.778-7.285,7.014-10.607a48.473,48.473,0,0,0-.072-5.528c-.127-2.389-.321-4.442-.321-4.442l10.327-7.833,7.887,3.85Z" transform="translate(-425.289 -344.267)" fill="#efb7b9"/><path d="M891.119,683.658l-8.4,4.842-1.118-1.55c-2.832-3.885-10.246-13.884-13.082-15.879-3.566-2.512-9.706-10.9-9.052-12.932s-6.917-14.6-6.917-14.6a23.838,23.838,0,0,1-4.22-5.859,7.549,7.549,0,0,1-.819-4.719c1-4.64,4.313-14.807,4.313-14.807s1.6-3.115,1.713-3.327,5.929-2.542,5.929-2.542l5.735-.691,7.216,7.192s-.266,1.713-.663,4.092c-.878,5.237-2.4,13.717-3.127,14.24-1.059.76,4.917,6.417,4.917,6.417s3.958,3.949,8.862,17.359c3.722,10.173,6.794,18,8.069,21.189C890.878,683.11,891.119,683.658,891.119,683.658Z" transform="translate(-499.992 -340.358)" fill="#efb7b9"/><path d="M806.276,623.18l4.174,16.066s-.679.819-1.688,2.029a93.205,93.205,0,0,1-2.638-10.6c-1.106-5.257-12.458-3.875-14.429-3.875-.869,0-2.089,2.325-3.3,4.8-.127-2.389-.321-4.442-.321-4.442L798.4,619.32Z" transform="translate(-465.702 -344.267)" opacity="0.1"/><path d="M872.433,618.782s-.266,1.713-.663,4.092a17.867,17.867,0,0,0-3.676-5.982c-5.516-5.716-12.846-.829-12.846-.829-.755.326-1.123,1.239-1.941,2.369a22.111,22.111,0,0,0-3.975,11.792,46.684,46.684,0,0,1-.971,7.463,7.548,7.548,0,0,1-.819-4.719c1-4.64,4.313-14.807,4.313-14.807s1.6-3.115,1.713-3.327,5.917-2.542,5.917-2.542l5.735-.691Z" transform="translate(-500.009 -340.358)" opacity="0.1"/><path d="M841.35,616.435c-.08,2.305-7.415,5.923-7.415,5.923s0-9.684-5.52-15.4-12.829-.849-12.829-.849c-.755.326-1.123,1.239-1.941,2.369a22.11,22.11,0,0,0-3.975,11.787c-.253,4.906-1.4,11.634-3.152,11.57-2.76-.089-4.642-9.768-5.756-15.025s-12.458-3.875-14.429-3.875-5.756,11.984-7.174,10.513,1.574-13.026,1.574-13.026l9.533-13.44,2.034-2.858,41.864,2.646s1.042,1.881,2.064,3.741c.966,1.772,1.92,3.529,1.958,3.657C838.273,604.426,841.426,614.125,841.35,616.435Z" transform="translate(-460.33 -331.505)" fill="#444053"/><path d="M826.67,607.2c.059.1,7.689,9.788,8.044,11.239q.467,2.444.713,4.936a40.653,40.653,0,0,1,.422-4.393c.249-.967-.886-3.213-1.713-3.949a13.28,13.28,0,0,1-2.574-2.7c-.207-.587-1.182-6.6-1.182-6.6l-3.195-.829Z" transform="translate(-488.012 -336.965)" opacity="0.1"/><path d="M854.367,607.59s-4.908,6.57-4.79,7.537S854.367,607.59,854.367,607.59Z" transform="translate(-501.251 -338.327)" opacity="0.1"/><path d="M877.624,423.642l-5.676,9.225-15.585,3.687s-15.8-4.61-5.064-9.408a6.231,6.231,0,0,0,2.625-2.068c1.891-2.651,1.194-6.653-.38-10.553a58,58,0,0,0-7.094-12.043s22.194-11.481,19.67.494a14.05,14.05,0,0,0,.122,6.318c1.325,5.429,5.511,9.7,8.419,12.127A28.489,28.489,0,0,0,877.624,423.642Z" transform="translate(-499.445 -231.945)" fill="#efb7b9"/><path d="M879.147,448.176l-5.676,9.225-15.585,3.687s-15.8-4.61-5.064-9.408a6.231,6.231,0,0,0,2.625-2.068c2.532,1.313,5.182,2.354,6.52,1.885,0,0,8.769-3.006,14.218-5.528A28.466,28.466,0,0,0,879.147,448.176Z" transform="translate(-500.968 -256.479)" opacity="0.1"/><path d="M852.038,601.045a53.049,53.049,0,0,0-6.6-1.89c-2.2-.454-4.326-.632-5.224.044-2.207,1.658-7.567,5.35-9.462,5.35a2.707,2.707,0,0,1-2.532-1.846s-5.836-.74-9.622,0c-2.532.494-8.482-3.036-12.171-5.429L806,597l2.034-2.858,41.864,2.646s1.042,1.881,2.064,3.741Z" transform="translate(-476.065 -331.516)" opacity="0.1"/><path d="M846.764,510.756l1.574,12.34a53.628,53.628,0,0,0-6.6-1.9c-2.2-.454-4.326-.627-5.225.044-2.207,1.663-7.567,5.35-9.462,5.35a2.705,2.705,0,0,1-2.532-1.841s-5.836-.74-9.622,0c-2.532.494-8.482-3.036-12.171-5.429-1.844-1.2-3.123-2.122-3.123-2.122l2.363-9.778,7.254-9.037,1.1-13.085,1.73-15.118,2.7-9.205,4.853-13.49.865-2.389s.945.652,2.338,1.52c.646.4,1.384.849,2.173,1.3,3,1.723,6.7,3.49,8.369,2.9,0,0,7.795-2.67,13.255-5.089,2.532-1.125,4.541-2.187,5.064-2.907a.693.693,0,0,0,.131-.3c0-.183.034-.044.068.36.338,4.072,1.511,35.232,1.511,35.232Z" transform="translate(-472.366 -254.692)" fill="#a36468"/><path d="M910.542,477.324l-6.621,32.645,1.574,12.34a53.611,53.611,0,0,0-6.6-1.9c-.376-5.059-.806-13.6.338-16.456,1.654-4.151,2.6-17.275,2.6-17.275l1.941-41.742.19-4.038a22.465,22.465,0,0,1,4.874,1.13l.2.059C909.369,446.164,910.542,477.324,910.542,477.324Z" transform="translate(-529.522 -253.905)" opacity="0.1"/><path d="M943.939,635.559c-4.127,1.451-9.706,3.04-10.276,1.323-.422-1.185-.376-3.845-.3-6.752,2.013.168,5.035.637,5.486,1.91S942.132,634.246,943.939,635.559Z" transform="translate(-549.651 -349.741)" opacity="0.1"/><path d="M908.444,440.9c.354-.281,13.247,3.04,15.019,6.086s2.722,1.658,2.954,12.31,1.3,14.521,1.3,14.521v14.941s-1.3,9.822,0,12.448,1.063,13.554,1.063,13.554-1.772,10.365,1.063,13.7S932.8,538,932.8,538s-13.838,5.809-14.771,3.045.473-13.554-.591-16.737-3.195-12.034-3.195-12.034-1.182-6.639,0-7.9-1.654-10.237-1.654-10.237a12.187,12.187,0,0,0-1.063,5.948c.236,3.455,0,10.928,0,10.928s1.929,7.191,1.616,10.651,4.642,7.191,3.942,8.574a19.187,19.187,0,0,0-1.186,3.949s6.626.074,7.335,2.009,6.149,2.878,6.621,5.587,5.44,3.544,4.14,8.11-.473,20.192-.473,20.192-23.89-3.455-21.286-16.185,14.9-7.053,14.9-7.053-9.8-6.772-15.5-5.943-7.925-16.6-7.925-16.6-1.654-16.185,0-20.331,2.6-17.275,2.6-17.275Z" transform="translate(-532.117 -253.905)" fill="#67647e"/><path d="M941.71,623.405s.591-1.313,4.79-.494,6.33-.271,6.33-.271S944.314,627.072,941.71,623.405Z" transform="translate(-554.504 -345.948)" opacity="0.1"/><path d="M932.055,495.14c-.059.207,3.076,5.6.709,9.96s-4.317,11.352-4.731,12.655-.983,3.322-.983,3.322" transform="translate(-546.03 -281.38)" opacity="0.1"/><path d="M906.146,427.46s11.116,9.753,11.057,14.314a4.249,4.249,0,0,1-3.376,1.451c-2.313,0-6.444-1.313-6.917-4.358s-2.249,0-1.241,1.594,1.6,2.419,1.6,2.419,10.521,3.391,12.534,4.98-.844,3.455-.844,3.455-2.954,6.224-2.777,7.261-7.276,14.59-7.276,14.59-2.481,14.664-2.363,17.428.3,8.638.3,8.638l-4.727,7.621s-1.156-23.509-.388-26.688S904.555,457,904.555,457s2.367-12.177,1.422-13.559-1.266-5.671-1.266-5.671Z" transform="translate(-531.237 -247.106)" opacity="0.05"/><path d="M904.033,426.34s11.12,9.753,11.061,14.314a4.259,4.259,0,0,1-3.376,1.451c-2.308,0-6.444-1.313-6.917-4.358s-2.249,0-1.245,1.594,1.6,2.419,1.6,2.419,10.521,3.391,12.534,4.98-.844,3.455-.844,3.455-2.954,6.229-2.781,7.266-7.25,14.615-7.25,14.615-2.486,14.664-2.363,17.428.3,8.638.3,8.638l-3.8,7.611s-2.11-23.509-1.333-26.693,2.836-23.169,2.836-23.169,2.367-12.172,1.418-13.554-1.266-5.671-1.266-5.671Z" transform="translate(-530.074 -246.538)" fill="#67647e"/><path d="M904.033,426.34s11.12,9.753,11.061,14.314a4.259,4.259,0,0,1-3.376,1.451c-2.308,0-6.444-1.313-6.917-4.358s-2.249,0-1.245,1.594,1.6,2.419,1.6,2.419,10.521,3.391,12.534,4.98-.844,3.455-.844,3.455-2.954,6.229-2.781,7.266-7.25,14.615-7.25,14.615-2.486,14.664-2.363,17.428.3,8.638.3,8.638l-3.8,7.611s-2.11-23.509-1.333-26.693,2.836-23.169,2.836-23.169,2.367-12.172,1.418-13.554-1.266-5.671-1.266-5.671Z" transform="translate(-530.074 -246.538)" opacity="0.12"/><path d="M825.359,449.259a9.763,9.763,0,0,1-.422,1.945c-.422,1.53-1.114,3.608-1.688,5.73-.844,3.282-3.422,9.2-4.967,14.807s-3.84,17.562-3.84,17.562.473,11-2.659,13.766S805.1,516,805.1,516s-1.122,3.391-2.435,6.619c-1.844-1.2-3.123-2.122-3.123-2.122l2.363-9.778,7.254-9.037,1.127-13.095,1.73-15.118,2.7-9.205,4.853-13.49c1.308-.114,2.178-.2,2.178-.2s.443-.311,1.025-.666C823.856,449.249,825.4,448.469,825.359,449.259Z" transform="translate(-472.331 -257.976)" opacity="0.1"/><path d="M801.238,451.671s-10.972,1.091-13.424.76-1.418,6.155-1.418,6.155-1.907,13.208-1.485,14.61,2.659,11.757,1.3,14.25-5.558,15.424-5.558,15.424-1.359,5.74-2.532,11.481-3.958,16.732-4.672,17.7-6.761,13.7-6.073,15.671,10-16.782,11.88-18.46,5.368-12.172,5.368-12.172,3.545-10.168,6.68-12.932,2.663-13.766,2.663-13.766,2.3-11.964,3.84-17.567,4.119-11.52,4.967-14.807,2.013-6.417,2.072-7.68S801.238,451.671,801.238,451.671Z" transform="translate(-453.709 -258.519)" opacity="0.05"/><path d="M803.491,450.574s-10.972,1.091-13.424.76-1.418,6.155-1.418,6.155-1.891,13.208-1.477,14.59,2.659,11.757,1.3,14.25-5.558,15.444-5.558,15.444-1.359,5.74-2.532,11.481-3.963,16.737-4.672,17.71-6.752,13.712-6.073,15.706,10-16.816,11.88-18.475,5.368-12.172,5.368-12.172,3.549-10.168,6.68-12.932,2.663-13.766,2.663-13.766,2.3-11.964,3.845-17.567,4.115-11.52,4.967-14.807,2.009-6.417,2.068-7.68S803.491,450.574,803.491,450.574Z" transform="translate(-455.017 -257.974)" fill="#67647e"/><path d="M803.491,450.574s-10.972,1.091-13.424.76-1.418,6.155-1.418,6.155-1.891,13.208-1.477,14.59,2.659,11.757,1.3,14.25-5.558,15.444-5.558,15.444-1.359,5.74-2.532,11.481-3.963,16.737-4.672,17.71-6.752,13.712-6.073,15.706,10-16.816,11.88-18.475,5.368-12.172,5.368-12.172,3.549-10.168,6.68-12.932,2.663-13.766,2.663-13.766,2.3-11.964,3.845-17.567,4.115-11.52,4.967-14.807,2.009-6.417,2.068-7.68S803.491,450.574,803.491,450.574Z" transform="translate(-455.017 -257.974)" opacity="0.12"/><path d="M837.369,521.41s1.35,7.961-.886,11.727S836.719,523.108,837.369,521.41Z" transform="translate(-493.153 -294.684)" opacity="0.1"/><path d="M885.5,574.73s-6.267,1.313-8.335,5.188S885.5,574.73,885.5,574.73Z" transform="translate(-517.042 -321.686)" opacity="0.1"/><path d="M888.133,590.7s-7.98,2.961-6.5,4.013,5.064-.829,6.09-.494S888.133,590.7,888.133,590.7Z" transform="translate(-519.673 -329.773)" opacity="0.1"/><path d="M728.484,759.877c-1.093,1.343-1.789,2.3-1.789,2.3L718.17,758.3l1.106-3.411.19-.439a.076.076,0,0,1,.063,0c.5.4,4.279,3.248,4.279,3.248Z" transform="translate(-425.301 -412.697)" opacity="0.1"/><path d="M696.336,759.97s-3.777-2.838-4.283-3.253-4.174,5.123-4.174,5.123-3.013,6.086-3.131,6.91-2.427,1.382-2.532,2a41.681,41.681,0,0,1-2.84,4.635s-1.536,4.7-4.254,5.923-5.621,4.289-1.895,7.744,11.175,5.395,11.175,5.395,4.731-5.74,5.68-8.435a53.672,53.672,0,0,1,3.663-7.192,38.947,38.947,0,0,0,1.895-5.326c.236-1.451,5.663-11.224,5.663-11.224Z" transform="translate(-398.301 -413.836)" fill="#444053"/><path d="M937.966,755.985l-8.4,4.842-1.118-1.55a34.4,34.4,0,0,0,4.039-2.419l4.853-2.438C937.726,755.437,937.966,755.985,937.966,755.985Z" transform="translate(-546.839 -412.684)" opacity="0.1"/><path d="M932.293,757.457s-3.748,2.586-4.731,2.631,1.38,3.134,1.38,3.134,1.853,3,1.772,4.472,2.325,5.025,2.325,5.025,4.1,8.253,3.823,11.115-2.642,10.365,2.954,8.884,11.589-2.216,11.47-5.582-2.532-9.22-2.532-9.22l-2.481-5.923a53.018,53.018,0,0,1-3.587-6.456c-1.1-2.631-4.528-11.027-4.528-11.027Z" transform="translate(-546.188 -412.73)" fill="#444053"/><path d="M847.467,437.964c5.309-2.374,4.174-8.44,1.688-13.963a14.666,14.666,0,0,1-6.664-6.1c-1.6.8-3.043,3.05-2.443,4.9a7.212,7.212,0,0,0,.886,1.575,11.976,11.976,0,0,1-.743,13.292,3.081,3.081,0,0,0-.992,1.881,2.246,2.246,0,0,0,1.587,1.866,9.071,9.071,0,0,0,3.039.711C843.416,440.832,844.239,439.41,847.467,437.964Z" transform="translate(-495.254 -242.264)" fill="#e3787d"/><path d="M938.82,630.2s5.676.262,7.567,1.737a8.6,8.6,0,0,1,2.629,3.657" transform="translate(-552.833 -349.777)" opacity="0.1"/><g transform="translate(343.899 177.689)" opacity="0.1"><path d="M841.789,426.611a12.151,12.151,0,0,1,.95,10.266,12.194,12.194,0,0,0-.477-11.377,6.877,6.877,0,0,1-.886-1.575,3.2,3.2,0,0,1,0-1.866,3.692,3.692,0,0,0-.473,2.961,7.025,7.025,0,0,0,.886,1.589Z" transform="translate(-840.067 -422.06)"/><path d="M843.694,462.145a9.041,9.041,0,0,1-2.532-.661,2.252,2.252,0,0,1-1.587-1.871q0-.072,0-.143a2.1,2.1,0,0,0-.485,1.254,2.246,2.246,0,0,0,1.587,1.866,9.069,9.069,0,0,0,3.038.711,1.893,1.893,0,0,1-.021-1.155Z" transform="translate(-839.09 -441.005)"/><path d="M854.634,453.9c-2.532,1.14-3.591,2.266-3.714,3.322A8.066,8.066,0,0,1,854.161,455a5.838,5.838,0,0,0,3.431-3.7,6.052,6.052,0,0,1-2.958,2.6Z" transform="translate(-845.928 -436.868)"/></g><path d="M866.222,409.323c-1.9,4.1-8.111,6.037-8.322,6.037a12.093,12.093,0,0,1-4.376-.8,58.008,58.008,0,0,0-7.094-12.043s22.194-11.481,19.67.494a14.049,14.049,0,0,0,.122,6.318Z" transform="translate(-499.433 -231.96)" opacity="0.1"/><path d="M868.422,381.287c0,8.554-5.617,15.675-12.908,16.362-.368.035-.748.054-1.128.054-7.752,0-14.036-7.35-14.036-16.417s6.284-16.417,14.036-16.417S868.422,372.22,868.422,381.287Z" transform="translate(-495.919 -215.409)" fill="#efb7b9"/><path d="M874.081,381.294c0,8.554-5.617,15.675-12.908,16.362a23.656,23.656,0,0,1-4.994-7.808,8.436,8.436,0,0,1-.916-4.057c.118-1.229.722-2.335.9-3.559.3-1.974-.565-3.978-1.456-5.726a22.222,22.222,0,0,0-2.806-4.778c-.625-.676-1.2-1.352-1.764-2.058,4.018-4.68,10.049-6.073,15.286-3.53s8.652,8.522,8.655,15.154Z" transform="translate(-501.577 -215.417)" opacity="0.1"/><path d="M846.366,358.837a6.885,6.885,0,0,1-1.5-3.6,5.478,5.478,0,0,1,1.266-3.376,5.292,5.292,0,0,1,2.954-2.108,13.847,13.847,0,0,1,2.262-.064,15.077,15.077,0,0,0,3.7-.795c4.469-1.313,9.44-1.826,13.475.785,3.207,2.073,5.355,5.829,7.039,9.64a12.628,12.628,0,0,1,1.325,4.812,21.869,21.869,0,0,1-.709,4.506,2.247,2.247,0,0,0-.034.918c.182.76.983.987,1.6,1.308a5.427,5.427,0,0,1,2.4,3.223,18.977,18.977,0,0,1,.7,4.3,6.891,6.891,0,0,1-.135,2.749c-.519,1.545-1.984,2.27-3.262,2.986a10.661,10.661,0,0,0-3.769,3.253,6.628,6.628,0,0,0-1.021,5.183,5.951,5.951,0,0,0,2.739,3.509,14.707,14.707,0,0,0,3.967,1.456,4.029,4.029,0,0,1,1.688.735c1.207,1.032,1.169,3.317.245,4.689a5.74,5.74,0,0,1-3.933,2.236,12.71,12.71,0,0,1-9.453-2.34,8.507,8.507,0,0,1-3.709-5.375c-.241-1.446,0-3.011-.506-4.353-.671-1.747-2.355-2.532-3.752-3.529-2.857-2.043-4.824-5.429-6.33-8.924a8.344,8.344,0,0,1-.92-4.057c.118-1.229.722-2.335.9-3.554.3-2.009-.566-3.978-1.456-5.73a22.206,22.206,0,0,0-2.806-4.783,32.548,32.548,0,0,1-2.971-3.7Z" transform="translate(-498.529 -206.77)" fill="#e3787d"/><g transform="translate(346.383 143.178)" opacity="0.1"><path d="M922.149,418.132a13.384,13.384,0,0,0-2.469,1.747q.519-.341,1.051-.637a9.9,9.9,0,0,0,2.481-1.713C922.858,417.762,922.5,417.94,922.149,418.132Z" transform="translate(-888.153 -385.255)"/><path d="M878.873,406.079a12.714,12.714,0,0,1-9.453-2.34,8.508,8.508,0,0,1-3.71-5.375c-.236-1.446,0-3.011-.506-4.353-.667-1.747-2.355-2.532-3.752-3.529-2.857-2.043-4.824-5.429-6.33-8.924a8.344,8.344,0,0,1-.92-4.057c.118-1.229.722-2.335.9-3.554.3-2.009-.565-3.978-1.456-5.73a21.523,21.523,0,0,0-2.8-4.783,32.125,32.125,0,0,1-2.954-3.687,6.884,6.884,0,0,1-1.5-3.6,5.477,5.477,0,0,1,1.266-3.376,7.115,7.115,0,0,1,.54-.627,6.288,6.288,0,0,0-1.958,1.732,5.379,5.379,0,0,0-1.266,3.376,6.923,6.923,0,0,0,1.5,3.6,31.26,31.26,0,0,0,2.954,3.687,21.362,21.362,0,0,1,2.8,4.783c.89,1.752,1.76,3.722,1.46,5.73-.182,1.219-.785,2.325-.9,3.554a8.345,8.345,0,0,0,.92,4.057c1.507,3.495,3.473,6.881,6.33,8.924,1.393.987,3.081,1.787,3.747,3.529.519,1.343.27,2.907.506,4.353a8.523,8.523,0,0,0,3.709,5.375,12.717,12.717,0,0,0,9.453,2.34,5.984,5.984,0,0,0,3.6-1.811,7.377,7.377,0,0,1-2.19.706Z" transform="translate(-844.975 -352.14)"/></g></g></g></g></svg>