<svg xmlns="http://www.w3.org/2000/svg" xmlns:xlink="http://www.w3.org/1999/xlink" width="365" height="471" viewBox="0 0 365 471"><defs><clipPath id="a"><rect width="365" height="471" transform="translate(10 479)" fill="#fff"/></clipPath><linearGradient id="b" x1="0.424" y1="0.161" x2="0.538" y2="0.818" gradientUnits="objectBoundingBox"><stop offset="0" stop-color="#2f2e41"/><stop offset="1" stop-color="#ff8181"/></linearGradient><linearGradient id="c" x1="0.5" y1="1" x2="0.5" gradientUnits="objectBoundingBox"><stop offset="0" stop-color="gray" stop-opacity="0.251"/><stop offset="0.54" stop-color="gray" stop-opacity="0.122"/><stop offset="1" stop-color="gray" stop-opacity="0.102"/></linearGradient></defs><g transform="translate(-10 -493)"><g transform="translate(0 14)" clip-path="url(#a)"><g transform="matrix(0.616, 0.788, -0.788, 0.616, -222.609, 78.425)"><path d="M206.508,0h0A206.508,206.508,0,0,1,413.016,206.508V590.022a0,0,0,0,1,0,0H0a0,0,0,0,1,0,0V206.508A206.508,206.508,0,0,1,206.508,0Z" transform="matrix(-0.788, -0.616, 0.616, -0.788, 820.907, 314.709)" fill="url(#b)"/><path d="M233.354,0h0A233.354,233.354,0,0,1,466.708,233.354V733.988a0,0,0,0,1,0,0H0a0,0,0,0,1,0,0V233.354A233.354,233.354,0,0,1,233.354,0Z" transform="matrix(-0.788, -0.616, 0.616, -0.788, 825.915, 353.237)" fill="#ff8181" opacity="0.05"/></g></g><g transform="translate(69 604.625)"><path d="M381.343,123.08a71.87,71.87,0,0,0-11.7-18.646l-162.345-1.6L340.962,84.059a75.867,75.867,0,0,0-27.125-5.379,76.008,76.008,0,0,0-90.8-3.074,75.672,75.672,0,0,0-34.746-8.371c-36.07,0-66.128,24.983-72.87,58.113Z" transform="translate(-92.05 -62.05)" fill="#ff8181" opacity="0.1"/><path d="M319.19,332.653a70.147,70.147,0,0,0-5.059-26.223L32.766,335.963a70.588,70.588,0,0,0-6.588,16.65L113.306,365.6,24.19,375.079c2.679,37.5,34.838,67.114,74.107,67.114a75.2,75.2,0,0,0,51.048-19.745,75.223,75.223,0,0,0,51.473,20.15c29.651,0,55.244-16.884,67.16-41.293,23.907-7.587,42.482-26.641,48.837-50.464L206.63,333.729H319.18C319.185,333.368,319.19,333.012,319.19,332.653Z" transform="translate(-24.19 -243.837)" fill="#ff8181" opacity="0.1"/><ellipse cx="8.546" cy="2.961" rx="8.546" ry="2.961" transform="translate(151.481 166.679)" fill="#ff8181" opacity="0.1"/><ellipse cx="8.546" cy="2.961" rx="8.546" ry="2.961" transform="translate(258.843 166.679)" fill="#ff8181" opacity="0.1"/><ellipse cx="8.546" cy="2.961" rx="8.546" ry="2.961" transform="translate(142.159 181.515)" fill="#ff8181" opacity="0.1"/><ellipse cx="8.546" cy="2.961" rx="8.546" ry="2.961" transform="translate(268.111 181.802)" fill="#ff8181" opacity="0.1"/><path d="M1068.78,635.879l1.867,3.986v-29.6h-1.867Z" transform="translate(-795 -453.943)" fill="#b77b7f"/><path d="M592.467,635.879l-1.867,3.986v-29.6h1.867Z" transform="translate(-439.311 -453.943)" fill="#b77b7f"/><path d="M1068.78,635.879l1.867,3.986v-29.6h-1.867Z" transform="translate(-795 -453.943)" opacity="0.1"/><path d="M592.467,635.879l-1.867,3.986v-29.6h1.867Z" transform="translate(-439.311 -453.943)" opacity="0.1"/><rect width="5.174" height="36.39" transform="translate(160.705 101.942)" fill="#b77b7f"/><rect width="5.174" height="36.39" transform="translate(264.801 101.942)" fill="#b77b7f"/><rect width="5.174" height="4.242" transform="translate(160.705 101.942)" opacity="0.1"/><rect width="5.174" height="4.242" transform="translate(264.801 101.942)" opacity="0.1"/><rect width="124.612" height="5.428" transform="translate(152.731 100.415)" fill="#dda2a6"/><rect width="5.174" height="5.428" transform="translate(160.705 108.133)" opacity="0.1"/><rect width="5.174" height="5.428" transform="translate(264.801 108.133)" opacity="0.1"/><rect width="124.612" height="5.428" transform="translate(152.731 107.795)" fill="#dda2a6"/><rect width="5.174" height="5.428" transform="translate(160.705 115.513)" opacity="0.1"/><rect width="5.174" height="5.428" transform="translate(264.801 115.513)" opacity="0.1"/><rect width="124.612" height="5.428" transform="translate(152.731 115.175)" fill="#dda2a6"/><rect width="5.174" height="5.428" transform="translate(160.705 122.893)" opacity="0.1"/><rect width="5.174" height="5.428" transform="translate(264.801 122.893)" opacity="0.1"/><rect width="124.612" height="5.428" transform="translate(152.731 122.555)" fill="#dda2a6"/><rect width="5.174" height="5.428" transform="translate(160.705 130.273)" opacity="0.1"/><rect width="5.174" height="5.428" transform="translate(264.801 130.273)" opacity="0.1"/><rect width="124.612" height="5.428" transform="translate(152.731 129.935)" fill="#dda2a6"/><g transform="translate(162.542 102.718)" opacity="0.1"><circle cx="0.751" cy="0.751" r="0.751"/><circle cx="0.751" cy="0.751" r="0.751" transform="translate(0 7.38)"/><circle cx="0.751" cy="0.751" r="0.751" transform="translate(0 14.76)"/><circle cx="0.751" cy="0.751" r="0.751" transform="translate(0 22.14)"/><circle cx="0.751" cy="0.751" r="0.751" transform="translate(0 29.52)"/><circle cx="0.751" cy="0.751" r="0.751" transform="translate(104.099)"/><circle cx="0.751" cy="0.751" r="0.751" transform="translate(104.099 7.38)"/><circle cx="0.751" cy="0.751" r="0.751" transform="translate(104.099 14.76)"/><circle cx="0.751" cy="0.751" r="0.751" transform="translate(104.099 22.14)"/><circle cx="0.751" cy="0.751" r="0.751" transform="translate(104.099 29.52)"/></g><circle cx="0.751" cy="0.751" r="0.751" transform="translate(162.542 102.38)" fill="#918c9e"/><circle cx="0.751" cy="0.751" r="0.751" transform="translate(162.542 109.76)" fill="#918c9e"/><circle cx="0.751" cy="0.751" r="0.751" transform="translate(162.542 117.14)" fill="#918c9e"/><circle cx="0.751" cy="0.751" r="0.751" transform="translate(162.542 124.52)" fill="#918c9e"/><circle cx="0.751" cy="0.751" r="0.751" transform="translate(162.542 131.9)" fill="#918c9e"/><circle cx="0.751" cy="0.751" r="0.751" transform="translate(266.64 102.38)" fill="#918c9e"/><circle cx="0.751" cy="0.751" r="0.751" transform="translate(266.64 109.76)" fill="#918c9e"/><circle cx="0.751" cy="0.751" r="0.751" transform="translate(266.64 117.14)" fill="#918c9e"/><circle cx="0.751" cy="0.751" r="0.751" transform="translate(266.64 124.52)" fill="#918c9e"/><circle cx="0.751" cy="0.751" r="0.751" transform="translate(266.64 131.9)" fill="#918c9e"/><path d="M715.105,538.4H584.64l2.969-3.65H712.221Z" transform="translate(-434.878 -397.776)" fill="#dda2a6"/><path d="M715.105,538.4H584.64l2.969-3.65H712.221Z" transform="translate(-434.878 -397.776)" opacity="0.1"/><path d="M715.105,537.738H584.64l2.969-3.648H712.221Z" transform="translate(-434.878 -397.285)" fill="#dda2a6"/><path d="M705.4,555.664l-139.966-.338,4.752-5.005H701.326Z" transform="translate(-420.589 -409.357)" fill="#dda2a6"/><path d="M705.4,555.664l-139.966-.338,4.752-5.005H701.326Z" transform="translate(-420.589 -409.357)" opacity="0.1"/><path d="M705.4,555l-139.966-.338,4.752-5.005H701.326Z" transform="translate(-420.589 -408.867)" fill="#dda2a6"/><path d="M695.273,576.354H545.89l4.583-5.174,140.73.169Z" transform="translate(-406.054 -424.874)" fill="#dda2a6"/><path d="M627.226,610.26v10.687l-1.837,3.563-.607-12.724-.072-1.527Z" transform="translate(-464.684 -453.943)" fill="#b77b7f"/><path d="M1036.308,610.26l-.074,1.527-.6,12.724-1.839-3.563V610.26Z" transform="translate(-768.974 -453.943)" fill="#b77b7f"/><path d="M627.226,610.26v10.687l-1.837,3.563-.607-12.724-.072-1.527Z" transform="translate(-464.684 -453.943)" opacity="0.1"/><path d="M1036.308,610.26l-.074,1.527-.6,12.724-1.839-3.563V610.26Z" transform="translate(-768.974 -453.943)" opacity="0.1"/><rect width="4.749" height="15.101" transform="translate(155.953 155.469)" fill="#b77b7f"/><rect width="4.749" height="15.101" transform="translate(266.656 155.469)" fill="#b77b7f"/><path d="M613.562,607.8H615.4v1.527H608.81V606.95h4.752Z" transform="translate(-452.857 -451.481)" opacity="0.1"/><path d="M1040.378,606.95v2.375h-6.588V607.8h1.839v-.848Z" transform="translate(-768.974 -451.481)" opacity="0.1"/><rect width="127.581" height="3.732" transform="translate(149.762 153.771)" fill="#b77b7f"/><rect width="5.428" height="32.83" transform="translate(145.861 153.092)" fill="#b77b7f"/><rect width="5.428" height="32.83" transform="translate(281.078 185.921) rotate(180)" fill="#b77b7f"/><rect width="127.581" height="0.338" transform="translate(149.762 153.771)" opacity="0.1"/><rect width="149.383" height="2.29" transform="translate(139.836 151.48)" fill="#dda2a6"/><rect width="149.383" height="2.29" transform="translate(139.836 151.48)" fill="#fff" opacity="0.1"/><circle cx="0.751" cy="0.751" r="0.751" transform="translate(147.5 155.057)" opacity="0.1"/><circle cx="0.751" cy="0.751" r="0.751" transform="translate(147.5 154.718)" fill="#918c9e"/><circle cx="0.751" cy="0.751" r="0.751" transform="translate(278.055 154.954)" opacity="0.1"/><circle cx="0.751" cy="0.751" r="0.751" transform="translate(278.055 154.616)" fill="#918c9e"/><ellipse cx="12.019" cy="1.65" rx="12.019" ry="1.65" transform="translate(9.775 164.168)" fill="#ff8181" opacity="0.1"/><ellipse cx="12.019" cy="1.65" rx="12.019" ry="1.65" transform="translate(55.817 168.835)" fill="#ff8181" opacity="0.1"/><ellipse cx="12.019" cy="1.65" rx="12.019" ry="1.65" transform="translate(110.049 162.518)" fill="#ff8181" opacity="0.1"/><ellipse cx="8.546" cy="1.173" rx="8.546" ry="1.173" transform="translate(40.863 182.604)" fill="#ff8181" opacity="0.1"/><ellipse cx="8.546" cy="1.173" rx="8.546" ry="1.173" transform="translate(88.65 181.431)" fill="#ff8181" opacity="0.1"/><path d="M270.356,461.127S253.5,405.866,273,383.721c14.586-16.558,31.139-14.578,38.555-12.529a13.7,13.7,0,0,1,8.843,7.349c2.59,5.592,2.124,14.668-16.174,25.263-30.637,17.737-32.532,42.069-32.532,42.069Z" transform="translate(-202.266 -291.011)" fill="#ff8181"/><path d="M323.834,405.73s-49.7,15.539-38.552,82.087" transform="translate(-217.189 -317.701)" fill="none" stroke="#565987" stroke-miterlimit="10" stroke-width="1"/><path d="M327.21,427.47s6.842,4.611,4.667,11.543" transform="translate(-249.588 -333.872)" fill="none" stroke="#565987" stroke-miterlimit="10" stroke-width="1"/><path d="M394.126,435.906s-4.183-4.257-9.276-1.908" transform="translate(-292.463 -338.201)" fill="none" stroke="#565987" stroke-miterlimit="10" stroke-width="1"/><path d="M317.535,522.909s-7.347-3.727-9.245.943" transform="translate(-235.515 -403.815)" fill="none" stroke="#565987" stroke-miterlimit="10" stroke-width="1"/><path d="M273.42,557.29s5.528-.441,5.615,2.211" transform="translate(-209.577 -430.417)" fill="none" stroke="#565987" stroke-miterlimit="10" stroke-width="1"/><path d="M287.35,613.784s19.745-40.163,25.168-39.285c2.577.418,3.763,2.951,4.3,5.5a16.158,16.158,0,0,1-1.073,9.778C312.94,596.2,305.417,608.4,287.35,613.784Z" transform="translate(-219.939 -443.227)" fill="#ff8181"/><path d="M313.2,604.3s-20.723,30.048-24.727,31.367" transform="translate(-220.772 -465.405)" fill="none" stroke="#565987" stroke-miterlimit="10" stroke-width="1"/><line x1="4.836" transform="translate(89.503 143.583)" fill="none" stroke="#565987" stroke-miterlimit="10" stroke-width="1"/><line x1="7.582" y2="0.325" transform="translate(80.962 154.577)" fill="none" stroke="#565987" stroke-miterlimit="10" stroke-width="1"/><line x2="0.822" y2="3.947" transform="translate(83.931 145.783)" fill="none" stroke="#565987" stroke-miterlimit="10" stroke-width="1"/><line x2="0.146" y2="3.589" transform="translate(75.87 157.803)" fill="none" stroke="#565987" stroke-miterlimit="10" stroke-width="1"/><path d="M203.144,613.784S183.4,573.62,177.978,574.5c-2.577.418-3.766,2.951-4.3,5.5a16.159,16.159,0,0,0,1.076,9.778C177.553,596.2,185.079,608.4,203.144,613.784Z" transform="translate(-135.146 -443.227)" fill="#ff8181"/><path d="M192,604.3s20.723,30.048,24.727,31.367" transform="translate(-149.014 -465.405)" fill="none" stroke="#565987" stroke-miterlimit="10" stroke-width="1"/><line x2="4.839" transform="translate(41.073 143.583)" fill="none" stroke="#565987" stroke-miterlimit="10" stroke-width="1"/><line x2="7.582" y2="0.325" transform="translate(46.867 154.577)" fill="none" stroke="#565987" stroke-miterlimit="10" stroke-width="1"/><line x1="0.822" y2="3.947" transform="translate(50.658 145.783)" fill="none" stroke="#565987" stroke-miterlimit="10" stroke-width="1"/><line x1="0.149" y2="3.589" transform="translate(59.396 157.803)" fill="none" stroke="#565987" stroke-miterlimit="10" stroke-width="1"/><path d="M390.326,748.748a3.4,3.4,0,0,0,1.125-1.7,1.512,1.512,0,0,0-.786-1.729,2.211,2.211,0,0,0-2.075.73,2.775,2.775,0,0,1-2.019.973,3.074,3.074,0,0,0,.938-2.877,1.23,1.23,0,0,0-.256-.584c-.4-.428-1.127-.243-1.606.092-1.537,1.073-1.949,3.143-1.96,5.008a9.555,9.555,0,0,1-.028-2.062,2.127,2.127,0,0,0-.768-1.824,2.332,2.332,0,0,0-1.181-.279,2.435,2.435,0,0,0-1.916.546,1.908,1.908,0,0,0,.074,2.354,7.491,7.491,0,0,0,1.983,1.588,4.4,4.4,0,0,1,1.419,1.353,1.48,1.48,0,0,1,.105.241h4.3a12.041,12.041,0,0,0,2.656-1.834Z" transform="translate(-288.423 -568.811)" fill="#ff8181"/><path d="M96.661,685.6a3.386,3.386,0,0,0,1.125-1.7A1.51,1.51,0,0,0,97,682.174a2.211,2.211,0,0,0-2.075.73,2.775,2.775,0,0,1-2.019.973,3.074,3.074,0,0,0,.95-2.877,1.242,1.242,0,0,0-.256-.584c-.4-.428-1.127-.243-1.606.095-1.537,1.071-1.949,3.143-1.957,5.005a9.289,9.289,0,0,1-.028-2.049,2.142,2.142,0,0,0-.768-1.824,2.331,2.331,0,0,0-1.181-.279,2.451,2.451,0,0,0-1.916.546,1.908,1.908,0,0,0,.074,2.354,7.461,7.461,0,0,0,1.985,1.588,4.414,4.414,0,0,1,1.417,1.353,1.485,1.485,0,0,1,.105.241h4.3a12.038,12.038,0,0,0,2.641-1.847Z" transform="translate(-69.994 -521.838)" fill="#ff8181"/><path d="M194.541,748.748a3.4,3.4,0,0,0,1.125-1.7,1.509,1.509,0,0,0-.786-1.729,2.211,2.211,0,0,0-2.075.73,2.775,2.775,0,0,1-2.019.973,3.074,3.074,0,0,0,.95-2.877,1.23,1.23,0,0,0-.256-.584c-.4-.428-1.127-.243-1.606.092-1.524,1.073-1.949,3.143-1.957,5.008a9.393,9.393,0,0,1-.028-2.062,2.127,2.127,0,0,0-.768-1.824,2.331,2.331,0,0,0-1.181-.279,2.441,2.441,0,0,0-1.916.546,1.908,1.908,0,0,0,.074,2.354,7.463,7.463,0,0,0,1.985,1.588,4.385,4.385,0,0,1,1.417,1.353,1.279,1.279,0,0,1,.105.241h4.28A12.043,12.043,0,0,0,194.541,748.748Z" transform="translate(-142.801 -568.811)" fill="#ff8181"/><path d="M490.9,636.87s1.611,2.106-.743,5.285-4.293,5.864-3.509,7.846c0,0,3.55-5.892,6.442-5.986S494.08,640.42,490.9,636.87Z" transform="translate(-368.052 -489.632)" fill="#ff8181"/><path d="M491.159,636.87a2.582,2.582,0,0,1,.33.661c2.818,3.312,4.321,6.4,1.611,6.483-2.526.072-5.554,4.588-6.281,5.728.026.087.054.174.087.256,0,0,3.55-5.892,6.442-5.986S494.341,640.42,491.159,636.87Z" transform="translate(-368.312 -489.632)" opacity="0.1"/><path d="M514.371,645.968c0,.74-.082,1.342-.184,1.342s-.187-.6-.187-1.342.105-.394.207-.394S514.371,645.225,514.371,645.968Z" transform="translate(-388.53 -496.045)" fill="#ffd037"/><path d="M515.725,649.33c-.651.356-1.217.569-1.281.479s.441-.451,1.091-.8.394-.1.443,0S516.376,648.976,515.725,649.33Z" transform="translate(-388.856 -498.523)" fill="#ffd037"/><path d="M460.059,636.87s-1.609,2.106.745,5.285,4.293,5.864,3.509,7.846c0,0-3.553-5.892-6.442-5.986S456.88,640.42,460.059,636.87Z" transform="translate(-345.719 -489.632)" fill="#ff8181"/><path d="M460.059,636.87a2.636,2.636,0,0,0-.328.661c-2.818,3.312-4.324,6.4-1.611,6.483,2.526.072,5.554,4.588,6.279,5.728a2.341,2.341,0,0,1-.085.256s-3.553-5.892-6.442-5.987S456.88,640.42,460.059,636.87Z" transform="translate(-345.719 -489.632)" opacity="0.1"/><path d="M458.87,645.968c0,.74.082,1.342.184,1.342s.187-.6.187-1.342-.105-.394-.207-.394S458.87,645.225,458.87,645.968Z" transform="translate(-347.522 -496.045)" fill="#ffd037"/><path d="M453.71,649.33c.651.356,1.217.569,1.265.479s-.438-.451-1.089-.8-.395-.1-.443,0S453.059,648.976,453.71,649.33Z" transform="translate(-343.389 -498.523)" fill="#ffd037"/><path d="M460.87,679.992s4.5-.138,5.858-1.107,6.916-2.118,7.265-.569,6.768,7.708,1.683,7.749-11.812-.792-13.167-1.619S460.87,679.992,460.87,679.992Z" transform="translate(-349.01 -519.897)" fill="#a8a8a8"/><path d="M475.746,692.571c-5.082.041-11.812-.792-13.167-1.616-1.025-.628-1.442-2.884-1.578-3.924h-.151s.284,3.63,1.639,4.455,8.082,1.66,13.167,1.619c1.468,0,1.975-.535,1.947-1.309C477.4,692.271,476.845,692.563,475.746,692.571Z" transform="translate(-348.995 -526.943)" opacity="0.2"/><path d="M745.972,416.08l.151-.054s-.072-3.276-1.847-5.023-.663-7.219-.663-7.219.149-5.753-.666-7.137,0-6.555,0-6.555v-7.856s-.663-2.049-.812-7.646-.738-4.867-1.847-6.481c-.574-.833-3.018-1.7-5.267-2.326a42.329,42.329,0,0,0-4.841-4.265,6.508,6.508,0,0,1,2.352-1.709c.8-.377,1.711-.768,2.036-1.573a3.107,3.107,0,0,0,.087-1.45,8.673,8.673,0,0,0-.438-2.262,2.964,2.964,0,0,0-1.5-1.7c-.387-.169-.889-.287-1-.689a.97.97,0,0,1,.021-.484,10.14,10.14,0,0,0,.443-2.372,5.839,5.839,0,0,0-.827-2.533,11.664,11.664,0,0,0-4.4-5.077c-2.518-1.373-5.635-1.1-8.417-.412a11.064,11.064,0,0,1-2.305.428,10.01,10.01,0,0,0-1.414.033,2.676,2.676,0,0,0-.768.256c.051-.051.1-.108.159-.156a3.783,3.783,0,0,0-1.224.912,3.005,3.005,0,0,0-.769,1.353,1.848,1.848,0,0,0-.061.512,2.541,2.541,0,0,0,.512,1.342,11.926,11.926,0,0,0-1.084.61,1.35,1.35,0,0,0-.448.392.8.8,0,0,0-.085.192,2.034,2.034,0,0,0-.172.889.243.243,0,0,1-.018.113c.031-.056.056-.113.082-.172-.292,1.793-2.505,2.918-3.128,4.547a2.406,2.406,0,0,0-.256,1.086c.028,1.312,1.189,2.285,1.819,3.438,1.053,1.929.582,4.273.284,6.442-.041.307-.074.625-.095.945a7.733,7.733,0,0,0-4.293,1.885c-2.326,2.441-1.281.364-2.954,5.753l-1.662,5.379-.223,3.9a4.056,4.056,0,0,0-1.181,2.659,2.725,2.725,0,0,1-.553,2.049,28,28,0,0,0,0,3.568c.149.692-1.109,1.383-1.025,2a17.988,17.988,0,0,1,0,2.049,1.548,1.548,0,0,0-1,1.565,20.1,20.1,0,0,1,.072,2.259s-1.844,1.929-1.476,2.984a5.292,5.292,0,0,1-.333,2.841s-.407,2.331-1.4,2.951c-.812.512-1.452,2.405-1.662,3.1-.743.026-11.468.438-11.112,1.867.369,1.481,10.49,1.942,11.671,1.942a1.042,1.042,0,0,0,.154-.015c-.277,1.793-.989,5.32-2.336,5.892-1.811.768-5.1,4.078-4.949,5.536s-.592,10.27-1.073,11.507a8.311,8.311,0,0,0-.154,2.08c-2.336,4.047-4.06,7.339-4.516,8.215l-.118.228-.138.364h0c-.315-.218-2.605,2.7-2.605,2.7a40.244,40.244,0,0,0-1.957,3.64c-.074.435-1.516.728-1.588,1.055a22.439,22.439,0,0,1-1.773,2.441s-.961,2.475-2.662,3.13-3.507,2.259-1.181,4.081,6.98,2.838,6.98,2.838,2.956-3.023,3.545-4.442a26.5,26.5,0,0,1,2.29-3.786,19.9,19.9,0,0,0,1.183-2.818c.159-.768,3.568-5.92,3.568-5.92l-.369-.143c.141-.154.3-.323.482-.512.126-.131.256-.272.4-.412.395.968.871,1.627,1.442,1.757,2.733.62,4.69-2.695,5.948-3.023s2.62-4.583,2.62-4.583,3.732-3.133,3.768-5.635c0-.551.021-1.137.033-1.716a29.635,29.635,0,0,1,2.147-3.612c1.381-1.844,2.462-3.643,3.153-4.029.512-.282,3.694-3.448,5.379-5.146l.174-.177c.512,1.117,1.1,1.906,1.773,1.924.512.015.927-.73,1.255-1.793q.049.1.108.207a12.706,12.706,0,0,0,2.626,3.074s4.729,6.627,4.321,7.685,3.435,5.5,5.636,6.809c1.773,1.05,6.4,6.314,8.174,8.361l.256.3a1.647,1.647,0,0,1-.4.1c-.615.023.863,1.65.863,1.65s1.155,1.578,1.107,2.357,1.452,2.646,1.452,2.646,2.562,4.355,2.39,5.851-1.65,5.461,1.847,4.685,7.239-1.166,7.172-2.938a17.049,17.049,0,0,0-1.575-4.867l-1.552-3.11a27.553,27.553,0,0,1-2.241-3.4c-.692-1.383-2.831-5.828-2.831-5.828l-.768.325-.164-.348c-.794-1.678-2.715-5.8-5.041-11.153a43.972,43.972,0,0,0-3.074-5.969l3.074-.648c3.54,3.3,11.858,4.319,11.858,4.319s-.512-8.228.3-10.633a2.134,2.134,0,0,0-.955-2.562c3.33-.192,9.268-.728,9.55-1.855S749.151,416.254,745.972,416.08Zm-9.265-2.006c-.658-.046-1.145-.051-1.145-.051a8.624,8.624,0,0,1,.738-2.075c.443-.73-2.659-2.695-2.462-4.516s-1.009-5.607-1.009-5.607.146-3.932,0-5.753a5.564,5.564,0,0,1,.664-3.13s1.773,4.734,1.025,5.379,0,4.15,0,4.15,1.329,4.662,1.993,6.337c.392.968.256,3.233.2,5.269Z" transform="translate(-501.915 -269.32)" fill="url(#c)"/><path d="M736.616,612s-11.2.382-10.841,1.842,10.2,1.914,11.343,1.914,2.8-2.1,2.8-2.1Z" transform="translate(-546.051 -471.132)" fill="#efb7b9"/><rect width="6.46" height="5.956" transform="translate(197.518 135.757)" fill="#67647e"/><rect width="6.46" height="5.956" transform="translate(197.518 135.757)" opacity="0.12"/><path d="M740.393,537.726l-5.943,12,7.534,2.444,6.081-5.218,2.874-5.569,5.82.474,6.212,3.092,5.021,3.066,3.038,5.682,4.355,2.462,9.337-1.993,1.363-6.35-7.618-5.1L775.7,538.53,764.51,536.9l-3.24-4.831-11.2,2.7Z" transform="translate(-546.313 -395.782)" fill="#67647e"/><path d="M740.036,538.159,733.97,551.23l7.657,1.37,6.081-5.218,2.874-5.569,5.82.471,6.212,3.094,5.021,3.064,3.038,5.684,4.355,2.459,9.337-1.993,1.363-6.35-7.618-5.1-2.761-4.183-11.194-1.627-3.24-4.834-11.2,2.7Z" transform="translate(-545.956 -396.102)" opacity="0.12"/><path d="M831.628,367.061a1.294,1.294,0,0,0-.435.387,2.064,2.064,0,0,0-.169.881c-.228,2.162-3.261,3.33-3.215,5.495.026,1.281,1.155,2.249,1.768,3.386,1.025,1.9.564,4.214.277,6.353-.218,1.622-.218,3.525,1.025,4.59a19.8,19.8,0,0,1,1.639,1.158c.948.989.74,2.61,1.365,3.842a1.117,1.117,0,0,0,.256.348,1.069,1.069,0,0,0,.364.187,3.276,3.276,0,0,0,3.4-1.14A5.8,5.8,0,0,0,839.082,389a28.949,28.949,0,0,0-.284-3.791c-.233-2.428-.154-4.867-.351-7.306a5.891,5.891,0,0,0-.512-2.239c-.187-.364-.441-.692-.617-1.061a5.635,5.635,0,0,1-.415-1.6l-.676-4.28c-.133-.856-.256-2.39-1.237-2.72S832.427,366.554,831.628,367.061Z" transform="translate(-621.952 -288.095)" fill="#e3787d"/><path d="M831.628,367.061a1.294,1.294,0,0,0-.435.387,2.064,2.064,0,0,0-.169.881c-.228,2.162-3.261,3.33-3.215,5.495.026,1.281,1.155,2.249,1.768,3.386,1.025,1.9.564,4.214.277,6.353-.218,1.622-.218,3.525,1.025,4.59a19.8,19.8,0,0,1,1.639,1.158c.948.989.74,2.61,1.365,3.842a1.117,1.117,0,0,0,.256.348,1.069,1.069,0,0,0,.364.187,3.276,3.276,0,0,0,3.4-1.14A5.8,5.8,0,0,0,839.082,389a28.949,28.949,0,0,0-.284-3.791c-.233-2.428-.154-4.867-.351-7.306a5.891,5.891,0,0,0-.512-2.239c-.187-.364-.441-.692-.617-1.061a5.635,5.635,0,0,1-.415-1.6l-.676-4.28c-.133-.856-.256-2.39-1.237-2.72S832.427,366.554,831.628,367.061Z" transform="translate(-621.952 -288.095)" fill="#e3787d"/><g transform="translate(205.771 79.381)" opacity="0.1"><path d="M840.253,372.147a.688.688,0,0,1,.015-.177.787.787,0,0,0-.133.159,2.049,2.049,0,0,0-.179.874.28.28,0,0,1-.015.11A2.73,2.73,0,0,0,840.253,372.147Z" transform="translate(-836.748 -371.97)"/><path d="M837.859,411.774a3.272,3.272,0,0,1-3.4,1.14.9.9,0,0,1-.62-.535c-.628-1.219-.42-2.838-1.368-3.83-.464-.482-1.13-.72-1.639-1.158-1.242-1.066-1.242-2.966-1.025-4.59.287-2.139.748-4.452-.277-6.35-.612-1.14-1.739-2.1-1.768-3.389a2.11,2.11,0,0,1,.023-.361,2.449,2.449,0,0,0-.31,1.222c.026,1.281,1.155,2.252,1.768,3.389,1.025,1.9.564,4.211.277,6.35-.218,1.624-.218,3.525,1.025,4.593a19.819,19.819,0,0,1,1.639,1.158c.948.989.74,2.61,1.365,3.827a1.127,1.127,0,0,0,.256.351,1.049,1.049,0,0,0,.366.184,3.272,3.272,0,0,0,3.4-1.14,4.915,4.915,0,0,0,.966-1.988A4.478,4.478,0,0,1,837.859,411.774Z" transform="translate(-827.479 -387.39)"/></g><path d="M957.162,637.55s11.2.384,10.838,1.842-10.193,1.916-11.343,1.916-2.8-2.106-2.8-2.106Z" transform="translate(-715.715 -490.137)" fill="#efb7b9"/><path d="M766.716,438.208s-5.49-.323-7.749,2.083-1.258.359-2.872,5.671l-1.616,5.313-.215,3.842a3.945,3.945,0,0,0-1.148,2.621,2.6,2.6,0,0,1-.541,2.011,28.168,28.168,0,0,0,0,3.517c.143.681-1.076,1.363-1,1.972a18.145,18.145,0,0,1,0,2.011,1.52,1.52,0,0,0-.968,1.537,20.2,20.2,0,0,1,.072,2.223s-1.793,1.9-1.437,2.943a5.311,5.311,0,0,1-.323,2.8s-.395,2.305-1.363,2.907-1.688,3.312-1.688,3.312.9,2.334.9,2.441-.646,6.1-2.4,6.855-4.954,4.024-4.816,5.451-.574,10.123-1.04,11.343.072,13.676,2.728,14.286,4.562-2.656,5.784-2.977,2.546-4.524,2.546-4.524,3.627-3.087,3.663-5.561.143-5.636.143-5.636-4.237-7.173-5.1-7.718-3.266-3.586-1.4-6.209a28.256,28.256,0,0,0,3.053-5.958l2.008-1.793,1.7-6.43,3.074-10.049,2.907-9.872,2.472-10.372,6.524-4.544S769.77,438.746,766.716,438.208Z" transform="translate(-555.412 -341.848)" fill="#67647e"/><path d="M749.645,629.661s-.412.425-1.025,1.053c-1.647,1.673-4.749,4.8-5.238,5.072-.671.384-1.721,2.154-3.074,3.973a43.388,43.388,0,0,0-3.158,5.743s-4.5,6.317-7.129,6.988c-1.793.453-4.227,2.8-5.61,4.263-.664.7-1.086,1.194-1.086,1.194l-5.174-2.011.671-1.77.115-.228c.5-.968,2.544-4.934,5.244-9.586a63.039,63.039,0,0,1,7.851-10.287s4.114-3.781,4.257-5.5a21.515,21.515,0,0,0-.044-2.869c-.077-1.24-.195-2.305-.195-2.305l6.268-4.065,4.788,2Z" transform="translate(-540.385 -476.577)" fill="#efb7b9"/><path d="M873.936,649l-5.1,2.513-.679-.8c-1.719-2.016-6.22-7.206-7.941-8.241-2.165-1.3-5.892-5.659-5.495-6.711s-4.2-7.575-4.2-7.575a12.744,12.744,0,0,1-2.562-3.041,3.431,3.431,0,0,1-.5-2.449c.607-2.408,2.618-7.685,2.618-7.685s.971-1.616,1.04-1.727,3.6-1.319,3.6-1.319l3.481-.359,4.38,3.732s-.161.889-.4,2.124c-.533,2.718-1.455,7.119-1.9,7.39-.643.394,2.984,3.33,2.984,3.33s2.4,2.049,5.379,9.009c2.259,5.279,4.124,9.342,4.9,11C873.79,648.713,873.936,649,873.936,649Z" transform="translate(-636.524 -470.835)" fill="#efb7b9"/><path d="M799.121,621.323l2.533,8.338s-.412.425-1.025,1.053a42.686,42.686,0,0,1-1.6-5.5c-.671-2.728-7.562-2.011-8.758-2.011-.528,0-1.268,1.207-2.006,2.49-.077-1.24-.195-2.305-.195-2.305l6.268-4.065Z" transform="translate(-592.394 -476.577)" opacity="0.1"/><path d="M862.605,615.327s-.161.889-.4,2.124a9.17,9.17,0,0,0-2.231-3.1c-3.348-2.966-7.8-.43-7.8-.43-.458.169-.681.643-1.178,1.23a10.428,10.428,0,0,0-2.413,6.12,20.92,20.92,0,0,1-.589,3.873,3.431,3.431,0,0,1-.5-2.449c.607-2.408,2.618-7.685,2.618-7.685s.971-1.616,1.04-1.727,3.591-1.319,3.591-1.319l3.481-.359Z" transform="translate(-636.546 -470.835)" opacity="0.1"/><path d="M816.758,605.7c-.049,1.2-4.5,3.074-4.5,3.074s0-5.026-3.351-7.995-7.787-.441-7.787-.441c-.458.169-.681.643-1.178,1.23a10.428,10.428,0,0,0-2.413,6.117c-.154,2.546-.848,6.038-1.914,6-1.675-.046-2.818-5.069-3.494-7.8s-7.562-2.011-8.758-2.011-3.494,6.22-4.355,5.456.955-6.76.955-6.76l5.787-6.975,1.235-1.483,25.411,1.373s.633.976,1.253,1.942c.587.92,1.166,1.832,1.189,1.9C814.891,599.469,816.8,604.5,816.758,605.7Z" transform="translate(-585.481 -457.832)" fill="#444053"/><path d="M826.67,606.091c.036.054,4.667,5.08,4.882,5.833a24.69,24.69,0,0,1,.433,2.562,18.143,18.143,0,0,1,.256-2.28c.151-.5-.538-1.668-1.04-2.049a7.493,7.493,0,0,1-1.563-1.4c-.125-.3-.717-3.427-.717-3.427l-1.939-.43Z" transform="translate(-621.106 -465.851)" opacity="0.1"/><path d="M852.484,607.59S849.5,611,849.576,611.5,852.484,607.59,852.484,607.59Z" transform="translate(-638.144 -467.852)" opacity="0.1"/><path d="M865.373,411.078l-3.445,4.788-9.46,1.914s-9.588-2.393-3.074-4.882a3.753,3.753,0,0,0,1.593-1.073c1.148-1.376.725-3.453-.231-5.477a29.682,29.682,0,0,0-4.306-6.25s13.471-5.958,11.94.256a6.266,6.266,0,0,0,.074,3.279c.8,2.818,3.345,5.036,5.11,6.294A17.356,17.356,0,0,0,865.373,411.078Z" transform="translate(-635.819 -311.595)" fill="#efb7b9"/><path d="M867.333,447.115l-3.445,4.788-9.46,1.914s-9.588-2.393-3.074-4.882a3.753,3.753,0,0,0,1.593-1.073c1.537.681,3.146,1.222,3.958.979,0,0,5.323-1.56,8.63-2.869A17.377,17.377,0,0,0,867.333,447.115Z" transform="translate(-637.779 -347.633)" opacity="0.1"/><path d="M833.945,597.724a36.51,36.51,0,0,0-4.009-.981c-1.337-.236-2.626-.328-3.171.023-1.34.861-4.593,2.777-5.743,2.777a1.644,1.644,0,0,1-1.537-.958,27.1,27.1,0,0,0-5.841,0c-1.537.256-5.149-1.575-7.388-2.818l-.256-.143,1.235-1.483,25.411,1.373s.633.976,1.253,1.942Z" transform="translate(-605.731 -457.847)" opacity="0.1"/><path d="M828.228,477.895l.956,6.4a36.892,36.892,0,0,0-4.009-.984,5.606,5.606,0,0,0-3.171.023c-1.34.863-4.593,2.777-5.743,2.777a1.645,1.645,0,0,1-1.537-.955,27.1,27.1,0,0,0-5.84,0c-1.537.256-5.149-1.575-7.388-2.818-1.119-.625-1.9-1.1-1.9-1.1l1.435-5.075,4.4-4.69.669-6.791,1.05-7.846,1.639-4.777,2.946-7,.525-1.24s.574.338,1.419.789c.392.207.84.441,1.319.674,1.824.894,4.065,1.811,5.08,1.5,0,0,4.731-1.386,8.046-2.641a10.526,10.526,0,0,0,3.074-1.509.336.336,0,0,0,.079-.156c0-.095.02-.023.041.187.2,2.113.917,18.285.917,18.285Z" transform="translate(-600.97 -345.006)" fill="#a36468"/><path d="M905.8,459.8l-4.019,16.942.956,6.4a36.878,36.878,0,0,0-4.009-.984c-.228-2.626-.489-7.06.2-8.54,1-2.154,1.578-8.966,1.578-8.966l1.178-21.663.115-2.1a15.645,15.645,0,0,1,2.959.587l.12.031C905.093,443.625,905.8,459.8,905.8,459.8Z" transform="translate(-674.528 -343.85)" opacity="0.1"/><path d="M939.763,632.948c-2.505.753-5.892,1.578-6.237.687a11.379,11.379,0,0,1-.179-3.5c1.222.087,3.056.33,3.33.991S938.667,632.266,939.763,632.948Z" transform="translate(-700.432 -484.618)" opacity="0.1"/><path d="M906.3,440.895c.215-.146,8.041,1.578,9.117,3.158s1.652.861,1.793,6.389.789,7.536.789,7.536v7.754s-.789,5.1,0,6.46.646,7.034.646,7.034-1.076,5.379.646,7.108,1.793,4.952,1.793,4.952-8.4,3.015-8.966,1.581.287-7.034-.359-8.686-1.939-6.245-1.939-6.245-.717-3.445,0-4.1-1-5.313-1-5.313a5.53,5.53,0,0,0-.646,3.087c.143,1.793,0,5.671,0,5.671s1.171,3.732.981,5.528,2.818,3.732,2.393,4.449a8.887,8.887,0,0,0-.72,2.049s4.022.038,4.452,1.043,3.732,1.493,4.019,2.9,3.3,1.839,2.513,4.209-.287,10.48-.287,10.48-14.5-1.793-12.921-8.4,9.045-3.661,9.045-3.661-5.948-3.515-9.406-3.084-4.811-8.615-4.811-8.615-1-8.4,0-10.551S905,464.664,905,464.664Z" transform="translate(-677.867 -343.851)" fill="#67647e"/><path d="M941.71,623.037s.359-.681,2.907-.256a7.348,7.348,0,0,0,3.842-.141S943.291,624.94,941.71,623.037Z" transform="translate(-706.677 -479.047)" opacity="0.1"/><path d="M930.088,495.14c-.036.108,1.867,2.907.43,5.169a36.483,36.483,0,0,0-2.872,6.568c-.251.676-.6,1.724-.6,1.724" transform="translate(-695.773 -384.207)" opacity="0.1"/><path d="M904.3,427.46s6.747,5.062,6.711,7.429a2.745,2.745,0,0,1-2.049.753c-1.4,0-3.912-.681-4.2-2.262s-1.365,0-.753.827.968,1.255.968,1.255,6.386,1.76,7.608,2.585-.512,1.793-.512,1.793-1.793,3.23-1.686,3.768-4.416,7.572-4.416,7.572-1.506,7.611-1.435,9.045.179,4.483.179,4.483l-2.869,3.955s-.7-12.2-.236-13.851,1.721-12.024,1.721-12.024,1.437-6.319.863-7.037a7.971,7.971,0,0,1-.768-2.943Z" transform="translate(-676.735 -333.864)" opacity="0.05"/><path d="M902.229,426.34s6.75,5.062,6.714,7.429a2.751,2.751,0,0,1-2.049.753c-1.4,0-3.912-.681-4.2-2.262s-1.365,0-.756.827.971,1.255.971,1.255,6.386,1.76,7.608,2.585-.512,1.793-.512,1.793-1.793,3.233-1.688,3.771-4.4,7.585-4.4,7.585-1.509,7.611-1.435,9.045.179,4.483.179,4.483l-2.305,3.95s-1.281-12.2-.809-13.853,1.721-12.024,1.721-12.024,1.437-6.317.861-7.034a7.919,7.919,0,0,1-.768-2.943Z" transform="translate(-675.238 -333.031)" fill="#67647e"/><path d="M902.229,426.34s6.75,5.062,6.714,7.429a2.751,2.751,0,0,1-2.049.753c-1.4,0-3.912-.681-4.2-2.262s-1.365,0-.756.827.971,1.255.971,1.255,6.386,1.76,7.608,2.585-.512,1.793-.512,1.793-1.793,3.233-1.688,3.771-4.4,7.585-4.4,7.585-1.509,7.611-1.435,9.045.179,4.483.179,4.483l-2.305,3.95s-1.281-12.2-.809-13.853,1.721-12.024,1.721-12.024,1.437-6.317.861-7.034a7.919,7.919,0,0,1-.768-2.943Z" transform="translate(-675.238 -333.031)" opacity="0.12"/><path d="M815.212,449.1a4.443,4.443,0,0,1-.256,1.009c-.256.794-.676,1.873-1.025,2.974-.512,1.7-2.077,4.775-3.015,7.685s-2.331,9.114-2.331,9.114.287,5.707-1.614,7.144-4.058,6.711-4.058,6.711-.681,1.76-1.478,3.435c-1.119-.625-1.9-1.1-1.9-1.1L800.974,481l4.4-4.69.684-6.8,1.05-7.846,1.639-4.777,2.946-7c.794-.059,1.322-.105,1.322-.105s.269-.161.622-.346C814.3,449.094,815.235,448.689,815.212,449.1Z" transform="translate(-600.926 -349.831)" opacity="0.1"/><path d="M787.908,450.866s-6.66.566-8.148.394-.861,3.194-.861,3.194-1.158,6.855-.9,7.582,1.614,6.1.789,7.4-3.374,8.005-3.374,8.005-.825,2.979-1.537,5.958-2.4,8.684-2.836,9.188-4.1,7.108-3.686,8.133,6.071-8.709,7.211-9.58,3.258-6.317,3.258-6.317,2.152-5.277,4.055-6.711,1.616-7.144,1.616-7.144,1.4-6.209,2.331-9.117,2.5-5.979,3.015-7.685a39.652,39.652,0,0,0,1.258-3.986C790.134,449.521,787.908,450.866,787.908,450.866Z" transform="translate(-576.96 -350.628)" opacity="0.05"/><path d="M790.165,449.779s-6.66.566-8.148.395-.861,3.194-.861,3.194-1.148,6.855-.9,7.572,1.614,6.1.789,7.4-3.374,8.015-3.374,8.015-.825,2.979-1.537,5.958S773.733,491,773.3,491.5s-4.1,7.116-3.686,8.151,6.071-8.727,7.211-9.588,3.258-6.317,3.258-6.317,2.154-5.277,4.055-6.711,1.616-7.144,1.616-7.144,1.4-6.209,2.334-9.117,2.5-5.979,3.015-7.685a38.762,38.762,0,0,0,1.255-3.986C792.4,448.447,790.165,449.779,790.165,449.779Z" transform="translate(-578.643 -349.828)" fill="#67647e"/><path d="M790.165,449.779s-6.66.566-8.148.395-.861,3.194-.861,3.194-1.148,6.855-.9,7.572,1.614,6.1.789,7.4-3.374,8.015-3.374,8.015-.825,2.979-1.537,5.958S773.733,491,773.3,491.5s-4.1,7.116-3.686,8.151,6.071-8.727,7.211-9.588,3.258-6.317,3.258-6.317,2.154-5.277,4.055-6.711,1.616-7.144,1.616-7.144,1.4-6.209,2.334-9.117,2.5-5.979,3.015-7.685a38.762,38.762,0,0,0,1.255-3.986C792.4,448.447,790.165,449.779,790.165,449.779Z" transform="translate(-578.643 -349.828)" opacity="0.12"/><path d="M836.66,521.41s.82,4.132-.538,6.086S836.266,522.291,836.66,521.41Z" transform="translate(-627.723 -403.748)" opacity="0.1"/><path d="M882.12,574.73s-3.8.681-5.059,2.692S882.12,574.73,882.12,574.73Z" transform="translate(-658.466 -443.409)" opacity="0.1"/><path d="M885.506,590.7s-4.844,1.537-3.947,2.083,3.074-.43,3.7-.256S885.506,590.7,885.506,590.7Z" transform="translate(-661.852 -455.288)" opacity="0.1"/><path d="M724.431,757.265c-.663.7-1.086,1.194-1.086,1.194l-5.174-2.011.671-1.77.115-.228a.053.053,0,0,1,.038,0c.3.21,2.6,1.686,2.6,1.686Z" transform="translate(-540.399 -577.089)" opacity="0.1"/><path d="M686.558,758.395s-2.293-1.473-2.6-1.688-2.533,2.659-2.533,2.659a39.886,39.886,0,0,0-1.9,3.586c-.072.428-1.473.717-1.537,1.04a21.378,21.378,0,0,1-1.724,2.405s-.932,2.441-2.582,3.074-3.412,2.226-1.15,4.019,6.783,2.8,6.783,2.8,2.872-2.979,3.448-4.378a26.66,26.66,0,0,1,2.224-3.732,18.4,18.4,0,0,0,1.15-2.764c.143-.753,3.438-5.825,3.438-5.825Z" transform="translate(-505.652 -578.762)" fill="#444053"/><path d="M934.226,755.232l-5.1,2.513-.679-.8a21.861,21.861,0,0,0,2.451-1.255l2.946-1.266C934.08,754.948,934.226,755.232,934.226,755.232Z" transform="translate(-696.814 -577.07)" opacity="0.1"/><path d="M930.339,756.039a14.117,14.117,0,0,1-2.872,1.365c-.6.023.838,1.627.838,1.627s1.125,1.555,1.076,2.321,1.411,2.608,1.411,2.608,2.49,4.283,2.321,5.769-1.6,5.379,1.793,4.611,7.034-1.15,6.962-2.9a17.026,17.026,0,0,0-1.537-4.785l-1.506-3.074a26.737,26.737,0,0,1-2.177-3.351c-.669-1.365-2.749-5.723-2.749-5.723Z" transform="translate(-695.975 -577.137)" fill="#444053"/><path d="M844.218,428.313c3.223-1.232,2.533-4.38,1.025-7.247A8.551,8.551,0,0,1,841.2,417.9c-.968.418-1.847,1.583-1.483,2.544a3.637,3.637,0,0,0,.538.817,5.487,5.487,0,0,1-.451,6.9c-.274.282-.6.581-.6.976,0,.487.512.8.963.968a6.294,6.294,0,0,0,1.844.369C841.759,429.8,842.259,429.063,844.218,428.313Z" transform="translate(-630.426 -326.753)" fill="#e3787d"/><path d="M938.82,630.2s3.445.136,4.593.9a4.562,4.562,0,0,1,1.6,1.9" transform="translate(-704.528 -484.67)" opacity="0.1"/><g transform="translate(208.745 92.213)" opacity="0.1"><path d="M841.393,424.422a5.509,5.509,0,0,1,.576,5.328,5.531,5.531,0,0,0-.289-5.9,3.471,3.471,0,0,1-.538-.817,1.429,1.429,0,0,1,0-.968,1.685,1.685,0,0,0-.287,1.537A3.536,3.536,0,0,0,841.393,424.422Z" transform="translate(-840.347 -422.06)"/><path d="M841.885,460.858a6.248,6.248,0,0,1-1.537-.343c-.456-.167-.961-.484-.963-.971a.719.719,0,0,1,0-.074,1,1,0,0,0-.295.651c0,.487.512.8.963.968a6.293,6.293,0,0,0,1.844.369.848.848,0,0,1-.013-.6Z" transform="translate(-839.09 -449.887)"/><path d="M853.174,452.647c-1.537.592-2.18,1.176-2.254,1.724a4.966,4.966,0,0,1,1.967-1.15,3.262,3.262,0,0,0,2.083-1.921A3.561,3.561,0,0,1,853.174,452.647Z" transform="translate(-847.89 -443.81)"/></g><path d="M858.444,403.661c-1.153,2.129-4.923,3.133-5.052,3.133a8.454,8.454,0,0,1-2.656-.418,29.681,29.681,0,0,0-4.306-6.25s13.471-5.958,11.94.256A6.267,6.267,0,0,0,858.444,403.661Z" transform="translate(-635.804 -311.618)" opacity="0.1"/><path d="M857.39,373.39a8.52,8.52,0,0,1-7.835,8.492c-.224.018-.454.028-.685.028a8.52,8.52,0,1,1,8.52-8.52Z" transform="translate(-631.282 -287.307)" fill="#efb7b9"/><path d="M864.672,373.4a8.52,8.52,0,0,1-7.835,8.492,12.241,12.241,0,0,1-3.031-4.052,3.861,3.861,0,0,1-.556-2.106c.072-.638.438-1.212.548-1.847a4.547,4.547,0,0,0-.884-2.971,11.3,11.3,0,0,0-1.7-2.48c-.379-.351-.73-.7-1.071-1.068a8.52,8.52,0,0,1,14.532,6.033Z" transform="translate(-638.564 -287.319)" opacity="0.1"/><path d="M845.777,353.533a3.321,3.321,0,0,1-.909-1.87,2.616,2.616,0,0,1,.768-1.752,3.248,3.248,0,0,1,1.793-1.094,9.82,9.82,0,0,1,1.373-.033,10.5,10.5,0,0,0,2.247-.412c2.713-.681,5.73-.948,8.179.407a11.436,11.436,0,0,1,4.273,5,5.84,5.84,0,0,1,.8,2.5,9.849,9.849,0,0,1-.43,2.339,1,1,0,0,0-.021.476c.11.394.6.512.973.679a2.907,2.907,0,0,1,1.458,1.673,8.55,8.55,0,0,1,.423,2.234,3.074,3.074,0,0,1-.082,1.427c-.315.8-1.2,1.178-1.98,1.55a6.3,6.3,0,0,0-2.288,1.688,3.043,3.043,0,0,0-.62,2.69,3.22,3.22,0,0,0,1.662,1.821,9.935,9.935,0,0,0,2.408.756,2.671,2.671,0,0,1,1.025.382,1.765,1.765,0,0,1,.149,2.434,3.656,3.656,0,0,1-2.387,1.16,8.733,8.733,0,0,1-5.738-1.214,4.483,4.483,0,0,1-2.252-2.79,10.4,10.4,0,0,0-.307-2.259c-.407-.907-1.429-1.314-2.277-1.832a11.067,11.067,0,0,1-3.842-4.631,3.822,3.822,0,0,1-.558-2.106c.072-.638.438-1.212.548-1.844a4.528,4.528,0,0,0-.884-2.974,11.288,11.288,0,0,0-1.7-2.482A17.673,17.673,0,0,1,845.777,353.533Z" transform="translate(-634.641 -274.617)" fill="#e3787d"/><g transform="translate(210.253 74.302)" opacity="0.1"><path d="M921.179,417.843a8.249,8.249,0,0,0-1.5.907q.315-.177.638-.33a6.128,6.128,0,0,0,1.506-.889C921.609,417.65,921.391,417.743,921.179,417.843Z" transform="translate(-900.544 -400.78)"/><path d="M865.551,380.133a8.735,8.735,0,0,1-5.738-1.214,4.483,4.483,0,0,1-2.252-2.79,10.243,10.243,0,0,0-.307-2.259c-.4-.907-1.429-1.314-2.277-1.832a11.066,11.066,0,0,1-3.842-4.631,3.821,3.821,0,0,1-.558-2.106c.072-.638.438-1.212.548-1.844a4.529,4.529,0,0,0-.884-2.974,10.94,10.94,0,0,0-1.7-2.482,17.447,17.447,0,0,1-1.793-1.914,3.321,3.321,0,0,1-.909-1.87,2.616,2.616,0,0,1,.768-1.752,3.941,3.941,0,0,1,.328-.325,3.7,3.7,0,0,0-1.189.9,2.569,2.569,0,0,0-.769,1.752,3.342,3.342,0,0,0,.912,1.87,16.969,16.969,0,0,0,1.793,1.914,10.853,10.853,0,0,1,1.7,2.482,4.531,4.531,0,0,1,.886,2.974c-.11.633-.476,1.207-.548,1.844a3.822,3.822,0,0,0,.558,2.106,11.066,11.066,0,0,0,3.842,4.631c.845.512,1.87.927,2.275,1.832a9.806,9.806,0,0,1,.307,2.259,4.491,4.491,0,0,0,2.252,2.79,8.737,8.737,0,0,0,5.738,1.214,3.886,3.886,0,0,0,2.188-.94A5.033,5.033,0,0,1,865.551,380.133Z" transform="translate(-844.975 -352.14)"/></g></g></g></svg>